<svg width="76" height="40" viewBox="0 0 76 40" fill="none" xmlns="http://www.w3.org/2000/svg">
<g clip-path="url(#clip0_6332_83527)">
<path fill-rule="evenodd" clip-rule="evenodd" d="M36.0224 0.18383C35.9205 0.295948 35.6438 0.644848 35.4075 0.959249C35.1713 1.27358 34.9251 1.57458 34.8605 1.62811C34.7377 1.72996 34.2928 1.81079 28.3602 2.80909C26.3591 3.1458 24.6256 3.44046 24.5079 3.46384C24.367 3.49178 24.0703 3.72493 23.6405 4.14546L22.9872 4.7846L20.2518 4.34974C18.7474 4.11061 17.4004 3.91517 17.2586 3.91538C16.9796 3.91595 8.31676 5.58881 8.127 5.67884C8.06372 5.70884 6.57441 7.21685 4.81744 9.02998L1.62288 12.3265H1.31476C0.948427 12.3265 0.715643 12.5275 0.715643 12.8436C0.715643 13.1273 0.817374 13.2902 1.05651 13.3891C1.4523 13.5529 1.91552 13.1861 1.83612 12.7719C1.8028 12.5981 1.89597 12.4776 2.66245 11.7029C3.13758 11.2226 3.552 10.8297 3.58346 10.8297C3.61485 10.8297 3.6406 11.1397 3.6406 11.5185V12.2074L2.73451 13.1223C1.86037 14.005 1.81792 14.0372 1.52964 14.0372C1.16723 14.0372 0.946643 14.201 0.885861 14.5154C0.848621 14.7082 0.877158 14.7797 1.06685 14.9693C1.25662 15.1588 1.32817 15.1873 1.52108 15.1501C1.82192 15.092 1.99977 14.8672 1.99977 14.5448C1.99977 14.3084 2.07097 14.2133 2.76782 13.5192C3.1903 13.0985 3.56249 12.7542 3.59495 12.7542C3.62741 12.7542 3.64296 13.0766 3.62947 13.4707L3.60493 14.1873L2.78452 14.9641C2.05542 15.6546 1.93521 15.7414 1.70449 15.7444C1.38175 15.7487 1.15767 15.9271 1.09988 16.2261C1.06286 16.4175 1.09104 16.4902 1.27253 16.6716C1.54048 16.9393 1.80023 16.9515 2.044 16.708C2.18825 16.5639 2.22021 16.4696 2.20345 16.2376C2.18276 15.9513 2.19346 15.9373 3.03642 15.1445L3.8903 14.3413L3.96164 10.3495L5.82833 8.43347C6.85499 7.37971 7.83414 6.38248 8.00422 6.21747L8.31341 5.91754L10.4893 5.49302C11.686 5.25959 12.6719 5.07519 12.6802 5.08332C12.6884 5.09144 11.3935 6.41983 9.80278 8.03517C7.00452 10.8767 6.90165 10.9723 6.64062 10.9723C6.2598 10.9723 5.99484 11.1951 5.99484 11.5153C5.99484 11.9686 6.52233 12.2781 6.85713 12.0213C7.04148 11.8799 7.15156 11.613 7.10383 11.423C7.06409 11.2649 7.31657 10.9849 9.42689 8.84595C10.7291 7.52604 12.1349 6.10586 12.5509 5.68981L13.3072 4.93342L15.0194 4.60577C16.9988 4.227 17.4807 4.15687 17.4807 4.24753C17.4807 4.28324 15.5895 6.17956 13.278 8.46155L9.0754 12.6106L8.76571 12.5686C8.34815 12.5118 8.06372 12.7204 8.06372 13.0833C8.06372 13.3653 8.32397 13.6808 8.55647 13.6808C8.91003 13.6808 9.20516 13.3908 9.20516 13.0435C9.20516 12.9639 10.9138 11.2257 13.5281 8.64552C15.9058 6.29901 17.8881 4.35829 17.9334 4.33271C18.0047 4.2925 19.1895 4.45901 19.248 4.51745C19.2598 4.52921 17.3721 6.41135 15.053 8.69997C11.8408 11.87 10.791 12.8657 10.6451 12.8806C10.2448 12.9215 10.1319 12.9764 10.0254 13.1823C9.88832 13.4471 9.94704 13.708 10.1859 13.8958C10.4167 14.0771 10.6358 14.0751 10.872 13.8894C11.0266 13.768 11.06 13.6833 11.06 13.4125V13.0833L15.2787 8.90945C17.5989 6.61377 19.5652 4.69686 19.6483 4.6496C19.7313 4.60227 19.8474 4.57583 19.9062 4.59087C19.9651 4.60584 20.2501 4.65609 20.5396 4.70263L21.066 4.78716L19.7549 6.10293C19.0337 6.82668 16.8499 8.98807 14.902 10.9061L11.3602 14.3936H7.83464L7.62269 14.2154C7.20157 13.8613 6.63691 14.0687 6.63691 14.5773C6.63691 14.8688 6.82446 15.0939 7.11375 15.1497C7.30794 15.1871 7.37949 15.1561 7.60628 14.9361L7.8716 14.6787H11.5541L16.5146 9.7528C20.7257 5.57099 21.4994 4.83264 21.636 4.86521C21.7244 4.88631 21.9573 4.92587 22.1535 4.95317C22.3497 4.98047 22.5501 5.02395 22.5988 5.04989C22.6555 5.08004 22.0647 5.71718 20.9546 6.8229C19.3092 8.46183 19.2083 8.54886 18.9544 8.54886C18.4097 8.54886 18.1383 9.1411 18.5119 9.51431C18.7472 9.74945 19.0713 9.74588 19.3118 9.50568C19.4635 9.35408 19.4892 9.27496 19.4592 9.05172L19.4229 8.78137L21.573 6.65055C22.7554 5.47855 23.9012 4.35109 24.119 4.1451L24.5151 3.77047L25.4745 3.5997C26.0021 3.50575 26.4427 3.43768 26.4534 3.44837C26.4641 3.45907 24.8862 5.02801 22.9468 6.93495L19.4206 10.4021H17.3123L15.6972 12.0058C14.4402 13.2538 14.0418 13.6095 13.9004 13.6095C13.5913 13.6095 13.3429 13.8635 13.3429 14.1797C13.3429 14.6742 13.8386 14.906 14.233 14.5959C14.4089 14.4578 14.4257 14.407 14.3963 14.1018L14.3636 13.7617L15.908 12.2244L17.4524 10.6872H19.5778L21.1153 9.17125C21.961 8.33746 23.632 6.68975 24.8288 5.50955C26.9838 3.38444 27.0085 3.36306 27.3971 3.28244C27.9276 3.17239 34.5159 2.06268 34.6388 2.06268C34.7074 2.06268 34.7511 2.21101 34.7857 2.56162C34.8285 2.99555 34.8533 3.06056 34.9767 3.06056C35.1097 3.06056 35.1155 3.02827 35.07 2.54259C35.0145 1.95142 35.0067 1.96774 35.871 0.859533L36.3368 0.262234L36.8021 0.305642C37.058 0.32952 37.293 0.38982 37.3242 0.439642C37.3556 0.489464 37.4191 0.698163 37.4654 0.903368C37.5453 1.25776 37.5383 1.30202 37.3245 1.7857C37.0718 2.3572 37.0389 2.58422 37.2138 2.54901C37.2812 2.53546 37.4418 2.26062 37.6037 1.88185L37.8789 1.23773L37.7284 0.691605C37.6371 0.360953 37.5326 0.128092 37.4634 0.101505C37.4004 0.0773425 37.0922 0.0401361 36.7783 0.0188243C36.2195 -0.0191661 36.2036 -0.0156736 36.0223 0.18383H36.0224ZM38.3262 0.627028C38.2522 0.673929 38.2497 0.751763 38.3145 1.00829C38.3907 1.311 38.3822 1.35448 38.1756 1.72027C38.0546 1.93453 37.9555 2.14344 37.9555 2.1845C37.9555 2.22555 38.3879 2.415 38.9162 2.60553C39.4446 2.79612 39.9225 2.98529 39.9782 3.02599C40.0338 3.06669 40.4076 3.61231 40.8087 4.23855C41.2097 4.86471 41.5906 5.43101 41.655 5.49694C41.7195 5.56294 42.2659 5.84676 42.8694 6.12781C43.7328 6.52988 43.9795 6.61819 44.0275 6.5425C44.0611 6.48954 44.0891 6.42938 44.0898 6.40878C44.0903 6.38818 43.5852 6.12973 42.9672 5.8345L41.8436 5.29772L41.0624 4.06912C40.6327 3.39342 40.2475 2.81515 40.2063 2.78415C40.1452 2.7381 39.4379 2.4686 38.4753 2.12462L38.3174 2.06817L38.4923 1.76247C38.6931 1.41164 38.7122 1.16374 38.5656 0.813061C38.4513 0.539714 38.457 0.544134 38.3262 0.627028ZM12.344 3.46049L7.6712 4.34646L1.60726 10.3856L1.3438 10.3509C0.810454 10.2805 0.507186 10.9132 0.890641 11.2962C1.27659 11.6819 1.85695 11.3674 1.85695 10.7726C1.85695 10.6134 2.37923 10.0579 4.84105 7.59882L7.82523 4.61795L17.1773 2.86155L19.4512 3.21166C20.7018 3.40425 21.7652 3.57632 21.8142 3.59406C21.8633 3.61181 21.9034 3.69143 21.9034 3.77112C21.9034 4.19977 22.6178 4.36784 22.9026 4.00611C23.014 3.86456 23.0445 3.75365 23.0139 3.60091C22.9268 3.16576 22.5965 3.02684 22.0865 3.21109C21.9058 3.27638 21.4525 3.22606 19.5132 2.92527C18.2185 2.72449 17.1272 2.5634 17.0879 2.56739C17.0487 2.57131 14.9138 2.97324 12.3438 3.46049H12.344ZM22.6834 3.54966C22.7837 3.7369 22.6243 3.93662 22.4 3.90483C22.2241 3.87988 22.1434 3.71046 22.2167 3.51972C22.2736 3.3714 22.5991 3.39228 22.6834 3.54966ZM28.2477 3.76784C28.0127 4.00276 27.9936 4.11994 28.1436 4.40968C28.3328 4.77533 28.7625 4.81062 29.0736 4.48609C29.2578 4.294 29.3231 4.27226 29.7166 4.27226C30.2331 4.27226 30.1977 4.24168 30.9962 5.37705L31.5476 6.16109L25.273 6.23237L20.0847 11.4769L19.3633 11.4741C18.6711 11.4714 18.631 11.4625 18.3726 11.2574C17.9739 10.9408 17.6291 10.9731 17.4367 11.345C17.3062 11.5972 17.3514 11.8393 17.5665 12.0394C17.789 12.2466 18.0749 12.2217 18.3617 11.9701C18.6021 11.7592 18.6166 11.7563 19.4164 11.757L20.2274 11.7578L25.4353 6.51869L26.2103 6.49374C26.6521 6.47956 26.9742 6.49638 26.9594 6.53295C26.9451 6.56823 25.6747 7.81785 24.1363 9.30989L21.3392 12.0227L19.3922 12.5044C18.3213 12.7692 17.3809 13.028 17.3025 13.0794C17.224 13.1308 16.6461 13.6548 16.0183 14.244L14.8769 15.3152L12.4394 15.3202L11.2051 16.514L9.97065 17.7079L9.93641 18.884C9.89588 20.2757 9.72923 20.0105 11.3582 21.1465L12.4766 21.9264L13.9681 21.9756C14.7885 22.0026 15.5155 22.0033 15.5837 21.9772C15.6519 21.951 16.3715 21.389 17.1828 20.7283L18.6579 19.527L18.6785 20.1692C18.6897 20.5225 18.6737 20.8563 18.6428 20.9111C18.6119 20.9659 17.9614 21.483 17.1973 22.0601L15.8081 23.1096L12.1406 23.035L10.12 21.485C9.00877 20.6325 8.04338 19.8715 7.97468 19.7937C7.90605 19.7159 7.84984 19.5608 7.84984 19.4491C7.84984 19.1969 7.60364 18.9553 7.3466 18.9553C6.82025 18.9553 6.56656 19.6327 6.97328 19.9524C7.1166 20.065 7.24487 20.0987 7.46788 20.0822C7.7618 20.0606 7.81816 20.0978 9.85964 21.6638L11.9503 23.2675L12.5219 23.3153C12.8362 23.3416 13.6774 23.3657 14.3911 23.3687C15.1049 23.3719 15.7019 23.3984 15.7179 23.4279C15.7591 23.5035 15.3704 27.0462 15.3103 27.1433C15.2831 27.1874 15.2195 27.2234 15.1691 27.2234C14.8574 27.2234 14.7241 27.8904 14.9839 28.15C15.1731 28.339 15.5794 28.339 15.7686 28.15C15.95 27.9688 15.9565 27.5527 15.7815 27.3305C15.6558 27.1708 15.6571 27.1129 15.8232 25.4661C15.9175 24.5313 16.0245 23.6491 16.061 23.5058C16.1132 23.3004 16.2292 23.1692 16.6075 22.8877C16.8716 22.6911 17.0958 22.5383 17.1057 22.5483C17.1156 22.5582 16.9161 24.1032 16.6625 25.9818C16.4087 27.8603 16.1841 29.5256 16.1634 29.6824C16.1426 29.8392 16.1507 30.0062 16.1813 30.0535C16.2119 30.1007 16.7816 30.4032 17.4474 30.7255C18.1132 31.0479 18.6815 31.3461 18.7104 31.388C18.7392 31.43 18.7632 31.5365 18.7639 31.6247C18.7666 32.0301 19.445 32.24 19.7312 31.9241C19.9054 31.7318 19.902 31.3357 19.7245 31.1392C19.6043 31.0062 19.5331 30.9905 19.2027 31.0244C18.8343 31.0622 18.7767 31.0421 17.6525 30.4817C17.0103 30.1616 16.4741 29.8669 16.4609 29.8267C16.4435 29.7742 17.4364 22.3661 17.4757 22.2549C17.4884 22.219 18.6181 21.3786 18.6537 21.3786C18.6756 21.3786 18.6936 21.7622 18.6936 22.231C18.6936 22.9838 18.7389 23.3039 19.0812 24.9709C19.2944 26.0091 19.5003 26.9165 19.5388 26.9874C19.5773 27.0584 20.5249 28.3001 21.6446 29.7471C23.3107 31.8999 23.6681 32.4007 23.6126 32.5043C23.5065 32.7023 23.532 32.8899 23.6926 33.094C23.8054 33.2373 23.904 33.2818 24.1082 33.2818C24.5427 33.2818 24.8027 32.8841 24.6419 32.4653C24.5871 32.3228 24.2502 32.1425 24.0299 32.138C23.8708 32.1346 23.4329 31.5911 20.2414 27.4362L19.7559 26.8042L18.9795 22.9823L18.9792 20.1578C18.979 17.9816 18.9994 17.3178 19.0681 17.2656C19.1172 17.2283 20.3451 16.7207 21.7969 16.1377L24.4365 15.0776L25.3328 14.1475C25.8257 13.636 26.3692 13.0632 26.5406 12.8748C26.8347 12.5513 26.8674 12.5347 27.124 12.578C27.3623 12.6182 27.4223 12.5974 27.6105 12.4094C27.8629 12.1572 27.8839 11.9213 27.6773 11.659C27.3549 11.2495 26.6867 11.5091 26.6812 12.0459C26.679 12.2623 26.5554 12.4212 25.62 13.4105C25.0378 14.0263 24.4691 14.6066 24.3563 14.7C24.1717 14.8529 19.5331 16.7807 19.1365 16.8694C18.9748 16.9055 18.9732 16.8989 18.9938 16.309L19.0146 15.7121L23.5804 13.8673L27.0404 10.4387C28.9434 8.553 30.637 6.89125 30.8039 6.74599C31.0995 6.48854 31.1218 6.48177 31.6778 6.48177C31.9915 6.48177 32.2483 6.50814 32.2483 6.54043C32.2483 6.57265 31.9674 6.86859 31.6241 7.19795C31.2808 7.52739 30.43 8.35256 29.7335 9.03169L28.4672 10.2664V12.3384L26.8799 13.9708C25.1166 15.7842 25.1919 15.7304 23.5804 16.3297C23.0311 16.534 22.5543 16.7241 22.5208 16.7521C22.4873 16.7801 22.5135 17.1943 22.5788 17.6725L22.6976 18.542L22.1824 19.4436L21.6671 20.3451L22.2516 24.7286C22.573 27.1395 22.835 29.1712 22.8337 29.2434C22.8324 29.3157 22.7671 29.4563 22.6887 29.556C22.6102 29.6557 22.546 29.8428 22.546 29.9719C22.546 30.396 23.087 30.6504 23.4494 30.3967C23.765 30.1759 23.7134 29.6038 23.3635 29.4445C23.2692 29.4016 23.1759 29.2932 23.1563 29.2036C23.1368 29.1141 22.862 27.1047 22.5458 24.7382L21.9709 20.4356L22.9905 18.6344L22.8901 17.8245C22.7916 17.0312 22.7925 17.0128 22.9353 16.9237C23.1249 16.8054 23.6157 16.6502 23.6601 16.6946C23.6791 16.7135 23.7563 17.1664 23.8317 17.7008L23.9687 18.6725L23.3747 19.8691L22.7808 21.0658L23.1225 23.7346C23.3105 25.2026 23.5894 27.3752 23.7424 28.5627C23.9908 30.491 24.0097 30.7424 23.9189 30.9148C23.6588 31.4086 23.8594 31.8563 24.3406 31.8563C24.68 31.8563 24.9002 31.6581 24.9002 31.3526C24.9002 31.0523 24.8011 30.8937 24.548 30.789C24.3914 30.7242 24.3222 30.6391 24.2933 30.4763C24.2058 29.9827 23.1167 21.4092 23.1167 21.2139C23.1167 21.0894 23.3539 20.5524 23.7003 19.8926L24.284 18.7811L24.1292 17.6768C24.0441 17.0696 23.9982 16.5501 24.0272 16.5226C24.0561 16.4951 24.3687 16.3586 24.7219 16.2194L25.3639 15.9663L28.7488 12.5044L28.7526 10.4669L29.0915 10.1042C29.6852 9.46861 32.8047 6.48155 32.8747 6.48155C32.9117 6.48155 32.9771 6.65625 33.0201 6.86972C33.2595 8.06132 34.2266 8.89113 35.4572 8.96084C35.8734 8.98436 36.0926 8.9577 36.4351 8.84188C36.7572 8.73297 36.9651 8.70474 37.2045 8.73753C37.6339 8.79633 37.8842 8.59284 37.8842 8.18492C37.8842 7.59411 37.0671 7.41641 36.8219 7.95391C36.7784 8.04949 36.7427 8.18798 36.7427 8.26168C36.7427 8.44636 36.0719 8.69112 35.5656 8.69112C34.7314 8.69112 33.8681 8.13581 33.4825 7.35134C33.2197 6.81656 33.2001 5.98903 33.438 5.47113C33.6459 5.01859 34.1292 4.51146 34.564 4.28958C35.0394 4.04695 35.8334 3.99898 36.3483 4.18173C36.6607 4.29257 36.709 4.33726 36.753 4.55594C36.8107 4.84297 37.1046 5.12729 37.3435 5.12729C37.6345 5.12729 37.8842 4.86663 37.8842 4.56292C37.8842 4.16719 37.6917 4.02443 37.1452 4.01473C36.9043 4.01046 36.5787 3.95571 36.4217 3.89313C36.0598 3.74873 35.2328 3.74053 34.7797 3.87674C33.9525 4.12542 33.2839 4.84261 33.0507 5.73129L32.9271 6.202L32.4271 6.1814L31.9273 6.1608L30.3787 3.98686H29.8083C29.2665 3.98686 29.2279 3.97617 29.038 3.77303C28.7784 3.49541 28.5219 3.49363 28.2477 3.76754V3.76784ZM28.7573 3.91837C28.9128 4.00155 28.9382 4.20084 28.8097 4.32928C28.5698 4.56892 28.2434 4.27725 28.439 3.9982C28.5628 3.82158 28.572 3.8193 28.7573 3.91837ZM37.555 4.43263C37.6123 4.52351 37.6122 4.59123 37.5549 4.6821C37.4477 4.85188 37.2451 4.83905 37.1226 4.65473C37.034 4.52137 37.0362 4.48809 37.1405 4.38388C37.2824 4.24204 37.4471 4.26143 37.555 4.43263ZM34.6732 4.86029C33.7211 5.43065 33.5311 6.6874 34.2702 7.52633C34.6411 7.94729 35.0138 8.11785 35.5655 8.11892C37.143 8.12213 37.9465 6.27678 36.8638 5.13671C36.5224 4.77711 36.1496 4.63207 35.5623 4.63021C35.1208 4.62886 35.0129 4.65673 34.6732 4.86029ZM36.2392 5.05424C37.2431 5.56593 37.3393 6.92197 36.4177 7.56909C35.2306 8.40268 33.6458 7.10317 34.2439 5.78661C34.4005 5.44191 34.6815 5.15281 34.9948 5.01411C35.3181 4.87091 35.9175 4.8903 36.2392 5.05424ZM34.9876 5.79758C34.7806 6.00443 34.7451 6.08896 34.7451 6.37492C34.7451 6.66089 34.7806 6.74542 34.9876 6.95227C35.263 7.22739 35.598 7.27365 35.9602 7.08648C36.7018 6.7033 36.3997 5.55524 35.5572 5.55524C35.2804 5.55524 35.1929 5.59245 34.9876 5.79758ZM40.2965 5.65332C39.9951 5.69737 39.7304 5.75197 39.7084 5.77456C39.6597 5.82481 40.2352 7.26588 40.3041 7.26588C40.331 7.26588 40.5543 6.881 40.8002 6.41056L41.2474 5.55524L41.046 5.56422C40.9353 5.56914 40.598 5.60927 40.2965 5.65332ZM9.03652 6.20194C8.88627 6.31997 8.84853 6.41028 8.84853 6.65176C8.84853 6.9502 8.82599 6.97714 7.02935 8.82977L5.21017 10.7056V14.4626L5.01398 14.6696C4.90604 14.7834 4.07942 15.5772 3.17696 16.4334C2.2745 17.2896 1.51501 18.0389 1.48926 18.0985C1.46343 18.1581 1.4558 18.3833 1.47228 18.5989C1.48876 18.8145 1.61739 21.3163 1.75807 24.1585L2.0139 29.326L2.51742 30.4308C2.98363 31.4538 3.0198 31.568 3.0056 31.9726C2.99162 32.3711 3.00717 32.4229 3.18238 32.5606C3.42494 32.7512 3.6411 32.7523 3.88074 32.5639C4.24393 32.2785 4.06087 31.5731 3.62284 31.5702C3.53459 31.5695 3.42715 31.5455 3.38414 31.5167C3.29653 31.4581 2.38629 29.4768 2.32494 29.2113C2.28727 29.0484 1.80444 19.8327 1.77726 18.7593C1.76663 18.3398 1.78975 18.2136 1.89982 18.09C1.97445 18.0064 4.56931 15.5287 7.66614 12.5842C11.7599 8.69177 13.3371 7.23438 13.4447 7.24471C14.0634 7.30387 14.4109 6.77038 14.0512 6.31356C13.7127 5.88347 12.9936 6.20272 13.0815 6.74407C13.1171 6.96324 13.0107 7.07258 9.7171 10.2018C7.84649 11.979 6.13132 13.6058 5.90574 13.8169L5.49553 14.2007V10.8488L7.26121 9.02941C9.00798 7.22953 9.03017 7.20993 9.33008 7.20245C9.72781 7.19254 9.91864 7.00687 9.91864 6.62989C9.91864 6.41235 9.87676 6.31698 9.73066 6.20223C9.62729 6.12097 9.47112 6.05447 9.38359 6.05447C9.29605 6.05447 9.13989 6.12097 9.03652 6.20223V6.20194ZM9.63328 6.6549C9.63328 6.84036 9.47141 6.93566 9.26652 6.87065C9.09723 6.81698 9.09073 6.51306 9.25689 6.42011C9.43046 6.32311 9.63328 6.44955 9.63328 6.6549ZM13.8395 6.51406C13.9445 6.64043 13.8785 6.88042 13.7223 6.94029C13.6002 6.98712 13.343 6.79931 13.343 6.66324C13.343 6.43437 13.6874 6.33095 13.8395 6.51406ZM27.1117 9.94054C25.2087 11.8411 23.5233 13.4733 23.3663 13.5675C23.1364 13.7057 21.9599 14.1992 19.0681 15.3705C19.0018 15.3974 18.9792 15.281 18.98 14.9179C18.9806 14.6492 19.0061 14.3898 19.0367 14.3418C19.0672 14.2937 19.8918 13.9303 20.8689 13.5341C21.8461 13.138 22.7597 12.7546 22.899 12.6822C23.0383 12.6097 23.6174 12.0831 24.1858 11.5119C25.0954 10.5979 25.2472 10.4733 25.4521 10.4733C25.7726 10.4733 25.9703 10.26 25.9703 9.91417C25.9703 9.56791 25.7747 9.37567 25.4224 9.37567C25.0809 9.37567 24.9002 9.59849 24.9002 10.0194C24.9002 10.3293 24.8849 10.3492 23.8479 11.3878L22.7956 12.4417L20.8694 13.2005C19.81 13.6178 18.887 13.9758 18.8184 13.996C18.7064 14.0289 18.6935 14.1465 18.6935 15.1318C18.6935 16.0775 18.6761 16.2506 18.5687 16.3717C18.3958 16.5666 15.9675 18.5638 15.7842 18.6618C15.5686 18.7771 14.1662 18.7667 14.0685 18.6491C14.0264 18.5984 13.9823 18.3178 13.9706 18.0255L13.9494 17.4941L13.2003 17.4745L12.4512 17.455L11.8092 17.9248C11.456 18.1833 11.1237 18.4198 11.0705 18.4503C10.9964 18.493 10.9763 18.7163 10.9841 19.41C10.9897 19.9072 10.9751 20.3453 10.9514 20.3834C10.8818 20.496 10.2817 20.0389 10.2303 19.8342C10.2049 19.733 10.2014 19.2491 10.2226 18.7589L10.2611 17.8678L10.8552 17.2711L11.4493 16.6744H13.5636C15.9767 16.6744 15.638 16.7593 16.5929 15.9151C17.0824 15.4824 17.1066 15.4704 17.4775 15.4788C17.7946 15.486 17.881 15.4601 17.9908 15.3246C18.1667 15.1077 18.1614 14.7172 17.9801 14.5361C17.7917 14.3479 17.3347 14.3429 17.1677 14.5273C17.1011 14.6008 17.0277 14.777 17.0047 14.9189C16.9712 15.1253 16.8616 15.2662 16.4549 15.6258C15.4988 16.4711 15.7968 16.3893 13.6746 16.3893H11.814L12.5891 15.6053H15.0028L15.7494 14.9103C16.1599 14.5281 16.7295 14.0035 17.015 13.7446L17.5342 13.2738L21.5083 12.2909L24.0456 9.83185C25.4411 8.47937 26.7953 7.17237 27.0551 6.92732L27.5274 6.48184L29.0495 6.48334L30.5717 6.4849L27.1117 9.94054ZM44.4482 6.89168C44.4487 6.96032 44.5774 7.54257 44.7343 8.18571C44.8913 8.82884 45.0072 9.36741 44.992 9.38266C44.9768 9.39784 44.4226 9.37881 43.7605 9.34032C42.6833 9.27774 42.4721 9.24331 41.7524 9.01345C41.3099 8.8721 40.9167 8.77581 40.8784 8.79947C40.6887 8.91658 40.8797 9.0401 41.635 9.28843C42.3824 9.53419 42.5676 9.56598 43.579 9.62201C44.1938 9.65601 44.853 9.68509 45.0437 9.68658L45.3906 9.68929L45.3366 9.422C45.2475 8.97938 45.2742 8.92043 45.8342 8.3257C46.1308 8.01073 46.3734 7.72505 46.3734 7.69084C46.3734 7.59647 44.7912 6.76966 44.6078 6.76823C44.5016 6.76737 44.4475 6.80921 44.4482 6.89168ZM37.5129 7.99291C37.7129 8.19269 37.5184 8.52962 37.2518 8.44516C37.0595 8.38414 37.0187 8.23724 37.1443 8.05812C37.2633 7.88841 37.3865 7.8666 37.5129 7.99291ZM19.1185 8.97139C19.2117 9.14545 19.1484 9.31473 18.9686 9.37175C18.7021 9.45622 18.5075 9.11929 18.7075 8.9195C18.8359 8.79121 19.0355 8.81637 19.1185 8.97139ZM34.3797 9.54724C34.3162 9.5843 34.2235 9.71274 34.1738 9.8327C34.0964 10.0193 34.1021 10.0921 34.213 10.3379C34.3401 10.6194 34.3394 10.6385 34.1819 11.2912C34.0935 11.6576 33.9673 12.0056 33.9015 12.0646C33.7659 12.1861 31.9615 12.9194 31.9142 12.8722C31.8973 12.8553 31.9895 12.4486 32.1192 11.9682C32.3419 11.1433 32.3693 11.0859 32.6136 10.9314C32.7646 10.8359 32.8924 10.6872 32.9209 10.574C33.0626 10.0099 32.3989 9.60326 31.995 10.0068C31.7932 10.2084 31.7563 10.6169 31.9269 10.7584C31.9858 10.8073 32.0339 10.9175 32.0339 11.0034C32.0339 11.2731 31.5462 12.9157 31.4323 13.0295C31.3726 13.0891 30.7561 13.3648 30.0625 13.6422L28.8012 14.1464L26.6456 19.084C25.4599 21.7997 24.4744 24.0371 24.4556 24.0559C24.4195 24.0919 24.3603 23.4662 24.2865 22.2696L24.2425 21.5569L25.2884 19.3829C25.8637 18.1873 26.3815 17.1369 26.4392 17.0486C26.4968 16.9604 26.6089 16.8882 26.6883 16.8882C26.9191 16.8882 27.1828 16.5736 27.1828 16.2981C27.1828 15.6966 26.318 15.5303 26.104 16.0907C26.0523 16.2261 26.0552 16.3567 26.114 16.5352C26.1949 16.7809 26.1662 16.8527 25.0849 19.1116C24.1484 21.0679 23.9724 21.4871 23.9724 21.7626C23.9724 22.9731 24.9298 30.7742 25.099 30.9431C25.1281 30.9721 25.8577 31.2812 26.7203 31.6299C28.1678 32.2152 28.2973 32.282 28.4025 32.4984C28.6243 32.9552 29.046 33.0658 29.3619 32.7502C29.8391 32.2735 29.2857 31.5792 28.6786 31.8928C28.4523 32.0097 28.4486 32.0087 26.9183 31.3859C25.7861 30.925 25.3689 30.723 25.3243 30.6139C25.2559 30.4465 24.5226 25.2358 24.5211 24.9065C24.5203 24.7187 26.3243 20.4497 26.4759 20.2807C26.5075 20.2454 26.8724 20.903 27.2866 21.7419L28.0397 23.2671L27.6853 25.4055L28.3338 26.7597C28.6905 27.5045 29.2538 28.6811 29.5858 29.3743C30.0933 30.4343 30.1769 30.6578 30.1111 30.7806C30.0043 30.9799 30.0872 31.2593 30.3037 31.4295C30.5345 31.6108 30.7536 31.6088 30.9898 31.4231C31.3834 31.1139 31.1404 30.4305 30.637 30.4305C30.4306 30.4305 30.4021 30.3803 29.2326 27.9513C28.576 26.5878 28.0388 25.3871 28.0388 25.2831C28.0388 25.1791 28.1073 24.6685 28.1911 24.1486L28.3433 23.2031L27.4994 21.512L26.6553 19.8208L27.0364 18.9424C27.9047 16.9406 27.8186 17.0778 28.32 16.8952C28.5643 16.8061 28.7811 16.7505 28.802 16.7713C28.823 16.7922 28.578 17.4408 28.2576 18.2125L27.6751 19.6157L28.4956 21.3725L29.3161 23.1294L29.0975 24.0788L28.8789 25.0283L29.6799 26.7015L30.481 28.3748L30.3617 28.6391C30.2222 28.9482 30.2861 29.2071 30.5471 29.3897C30.7676 29.5441 30.9785 29.5332 31.2039 29.3561C31.3489 29.2422 31.3919 29.1456 31.3919 28.9336C31.3919 28.6321 31.2621 28.4567 30.9617 28.352C30.8027 28.2966 30.6468 28.0232 29.9818 26.632L29.1911 24.9778L29.3462 24.3188C29.4315 23.9563 29.5174 23.6605 29.537 23.6615C29.5566 23.6624 29.8103 24.18 30.1008 24.8116C30.5408 25.7681 30.6152 25.9819 30.5467 26.0916C30.5015 26.164 30.4654 26.3118 30.4667 26.4201C30.473 26.9683 31.1725 27.168 31.4917 26.7127C31.7258 26.3788 31.5538 25.9886 31.1073 25.8407C30.8782 25.7648 30.8167 25.6492 29.4907 22.8039C28.7326 21.177 28.0936 19.7792 28.071 19.6978C28.028 19.5443 29.113 16.8034 29.2937 16.6088C29.3747 16.5215 32.968 15.1601 33.0091 15.2012C33.0247 15.2168 31.8631 28.8785 31.7883 29.5585C31.7507 29.9003 31.7614 29.9399 31.9083 30.0012C31.997 30.0382 32.7854 30.267 33.6603 30.5094C35.2478 30.9494 35.2513 30.9508 35.351 31.1891C35.5258 31.6071 35.9958 31.6821 36.3124 31.3427C36.76 30.8627 36.0813 30.1664 35.537 30.5473C35.3779 30.6586 35.2923 30.6427 33.7376 30.2126L32.1053 29.7612V29.522C32.1053 29.3905 32.3776 26.1011 32.7104 22.2119C33.2451 15.9659 33.3303 15.1302 33.4417 15.0472C35.3725 13.61 38.3762 11.4576 38.4862 11.4324C38.5669 11.4139 39.8689 11.2054 41.3795 10.9691C42.8902 10.7329 44.2144 10.5219 44.3223 10.5003C44.51 10.4627 44.5865 10.3089 44.4572 10.2291C44.4234 10.2082 43.0132 10.411 41.3232 10.6797C38.6953 11.0975 38.2164 11.1922 38.0138 11.3341C37.8834 11.4254 36.7977 12.2201 35.6009 13.1002L33.4251 14.7004L31.1065 15.5519C29.8313 16.0202 28.6211 16.4618 28.4171 16.5332L28.0463 16.6631L28.1063 16.5079C28.3208 15.9523 28.9896 14.485 29.0597 14.4158C29.1065 14.3697 30.2522 13.8928 31.6059 13.3558C32.9596 12.8188 34.1153 12.3254 34.1741 12.2593C34.233 12.1933 34.3614 11.8226 34.4595 11.4355C34.6213 10.7971 34.6595 10.719 34.8716 10.5939C35.1482 10.4307 35.2442 10.2734 35.2442 9.98324C35.2442 9.60839 34.7238 9.34531 34.3797 9.54624V9.54724ZM25.6711 9.96136C25.6527 10.1214 25.6141 10.1526 25.435 10.1526C25.2623 10.1526 25.2162 10.1189 25.1964 9.97839C25.1642 9.75052 25.364 9.59414 25.5561 9.69685C25.6501 9.7471 25.6863 9.83035 25.6711 9.96136ZM34.8733 9.8461C35.0057 9.97832 34.9748 10.1748 34.8076 10.2641C34.6831 10.3307 34.6311 10.32 34.5151 10.2041C34.399 10.0882 34.3883 10.0361 34.4549 9.91182C34.5444 9.74474 34.741 9.71388 34.8733 9.8461ZM32.5637 10.2536C32.7958 10.5099 32.4357 10.8462 32.1909 10.6016C32.0667 10.4775 32.086 10.2778 32.2302 10.1939C32.4017 10.0941 32.4227 10.0978 32.5637 10.2536ZM1.50488 10.7671C1.57151 10.8914 1.56081 10.9435 1.44474 11.0594C1.32874 11.1753 1.27666 11.186 1.15225 11.1195C0.985024 11.0301 0.954134 10.8336 1.08647 10.7014C1.21881 10.5692 1.41542 10.6001 1.50488 10.7671ZM6.73871 11.3694C6.80035 11.431 6.85078 11.5089 6.85078 11.5425C6.85078 11.634 6.63905 11.8276 6.53896 11.8276C6.31595 11.8276 6.20137 11.5071 6.36567 11.3429C6.48195 11.2267 6.60466 11.2354 6.73871 11.3694ZM18.1197 11.4321C18.2295 11.5644 18.1922 11.7552 18.0375 11.8526C17.9451 11.9108 17.8825 11.8974 17.77 11.7957C17.5937 11.6363 17.5888 11.587 17.7352 11.4406C17.8751 11.3009 18.0082 11.2979 18.1197 11.4321ZM27.4753 11.9119C27.546 12.044 27.535 12.0865 27.4029 12.1935C27.2234 12.3387 27.065 12.3029 27.0013 12.1027C26.9034 11.7943 27.322 11.6258 27.4753 11.9119ZM1.50731 12.7672C1.57822 12.8996 1.56695 12.942 1.43183 13.0513C1.15467 13.2755 0.835423 12.9481 1.08654 12.6972C1.22009 12.5637 1.41578 12.5963 1.50731 12.7672ZM8.85324 12.9767C8.91987 13.101 8.90917 13.1531 8.7931 13.269C8.6771 13.3849 8.62502 13.3956 8.50061 13.329C8.33338 13.2397 8.30249 13.0432 8.43483 12.911C8.56717 12.7788 8.76378 12.8096 8.85324 12.9767ZM10.6892 13.2674C10.8195 13.3976 10.7916 13.5955 10.6306 13.6816C10.468 13.7686 10.3799 13.7332 10.2759 13.5392C10.1482 13.3008 10.4946 13.0729 10.6892 13.2674ZM14.0422 13.9801C14.1613 14.0992 14.149 14.2872 14.0148 14.3985C13.7924 14.5829 13.5137 14.2255 13.7026 13.9981C13.8071 13.8722 13.9278 13.8659 14.0422 13.9801ZM1.62894 14.4078C1.75836 14.5371 1.73167 14.7358 1.57351 14.8204C1.36898 14.9297 1.10659 14.6675 1.21602 14.4632C1.30071 14.3052 1.49953 14.2785 1.62894 14.4078ZM7.42094 14.4632C7.53037 14.6675 7.26798 14.9297 7.06345 14.8204C6.90529 14.7358 6.87861 14.5371 7.00802 14.4078C7.13743 14.2785 7.33626 14.3052 7.42094 14.4632ZM17.8238 14.9055C17.8562 15.1858 17.6089 15.3057 17.4093 15.1063C17.2098 14.907 17.3298 14.6598 17.6103 14.6922C17.758 14.7092 17.8068 14.758 17.8238 14.9055ZM9.16735 15.6018C9.08752 15.6341 8.9793 15.7123 8.92679 15.7755C8.84397 15.8752 8.60933 15.8904 7.14963 15.8904H5.46785L4.14776 17.2039L2.82761 18.5175L3.05911 23.4228C3.18645 26.1207 3.29539 28.4482 3.30131 28.5949C3.30944 28.7965 3.26521 28.9105 3.11982 29.062C2.7385 29.4597 2.96601 30.0744 3.49443 30.0744C3.9789 30.0744 4.18693 29.4002 3.81011 29.0511C3.62291 28.8777 3.62234 28.8738 3.52803 27.106C3.47602 26.1317 3.43208 25.0619 3.43036 24.7287L3.4273 24.1228L5.11835 22.2669L5.43953 22.2925C5.71982 22.3147 5.78032 22.2932 5.91366 22.1238C6.10613 21.8794 6.10763 21.6639 5.91865 21.4239C5.80379 21.278 5.70834 21.2361 5.49061 21.2361C5.12413 21.2361 4.9258 21.4292 4.92309 21.7885C4.92124 22.0295 4.84505 22.1363 4.14912 22.8735L3.37721 23.6911L3.32678 22.9395L3.27641 22.1878L4.83399 20.5894C5.69065 19.7102 6.59638 18.7744 6.84672 18.5098C7.25172 18.0818 7.33155 18.0287 7.57018 18.0287C7.93837 18.0287 8.05202 17.9736 8.17522 17.7355C8.30834 17.4784 8.24699 17.2153 8.01078 17.0297C7.62269 16.7247 7.15898 16.9654 7.12266 17.4909C7.10162 17.795 7.0469 17.8601 5.21045 19.7631L3.31993 21.7223L3.27456 21.4614C3.24966 21.3179 3.207 20.6231 3.17982 19.9175L3.13038 18.6345L4.3712 17.405L5.6121 16.1755H8.67988L8.90097 16.4249C9.31289 16.8899 9.91893 16.702 9.91893 16.1094C9.91893 15.8919 9.87705 15.7965 9.73095 15.6817C9.53155 15.525 9.40235 15.5067 9.16735 15.6018ZM39.9536 23.6882V31.7139H42.8993C46.0832 31.7139 46.2792 31.6951 47.0238 31.3181C47.796 30.9273 48.3506 30.1187 48.5151 29.1444C48.5672 28.8356 48.5878 28.0576 48.5709 27.0308C48.5467 25.5568 48.5296 25.369 48.3861 25.0083C48.1609 24.4419 47.8089 24.0654 47.2372 23.7797L46.7492 23.5358L47.1172 23.3834C47.7857 23.1066 48.2619 22.49 48.4343 21.6782C48.5505 21.1311 48.5352 18.7438 48.4118 18.162C48.1558 16.9556 47.4257 16.1975 46.1793 15.8439C45.8387 15.7472 45.2672 15.7216 42.8608 15.6947L39.9536 15.6622V23.688V23.6882ZM52.7343 16.0152C52.6234 16.5346 49.5845 31.6519 49.5845 31.6847C49.5845 31.7006 50.2084 31.7136 50.9709 31.7136C52.2298 31.7136 52.3605 31.7021 52.3937 31.5888C52.4307 31.4618 52.9376 28.6945 52.9376 28.6189C52.9376 28.5961 53.5796 28.5774 54.3644 28.5774C55.1491 28.5774 55.7916 28.6014 55.7921 28.6309C55.7926 28.6603 55.9045 29.3418 56.0409 30.1455C56.1772 30.9491 56.2891 31.6307 56.2896 31.6601C56.2901 31.6896 56.9829 31.7136 57.8292 31.7136C59.2612 31.7136 59.3652 31.705 59.3304 31.5888C59.3098 31.5203 58.5998 27.968 57.7526 23.695C56.9054 19.4219 56.1956 15.8695 56.1753 15.8011C56.1414 15.6869 55.9973 15.6763 54.4724 15.6763H52.8067L52.7343 16.0149V16.0152ZM60.8564 23.6953V31.7139H63.7814V15.6767H60.8564V23.6953ZM65.9929 23.688V31.7138H68.9892V25.0851L69.8275 25.0855C70.2885 25.0857 70.7795 25.1174 70.9186 25.1561C71.2333 25.2434 71.6087 25.6215 71.7014 25.9445C71.74 26.0789 71.7722 26.991 71.7729 27.9713C71.7746 30.0171 71.8293 30.5229 72.1075 31.0669C72.2723 31.3886 72.3751 31.4926 72.6897 31.6569C73.0599 31.8501 73.1063 31.8563 74.1693 31.8563H75.2672V31.4239C75.2672 31.0734 75.2337 30.9476 75.0903 30.7598C74.7093 30.2605 74.6779 30.0583 74.6323 27.7579L74.5895 25.6196L74.3911 25.2161C74.1671 24.7598 73.7712 24.3695 73.3025 24.1421C73.1277 24.057 72.9843 23.9699 72.9843 23.9483C72.9843 23.9267 73.1612 23.8168 73.3774 23.7039C73.8475 23.4585 74.1536 23.1272 74.4033 22.5937C74.5816 22.2123 74.5888 22.1429 74.6137 20.6206C74.6287 19.6689 74.6066 18.8347 74.5581 18.518C74.3512 17.1709 73.503 16.2271 72.1582 15.8467C71.8051 15.7468 71.2648 15.7219 68.8644 15.6946L65.9929 15.6619V23.6877V23.688ZM9.62037 16.1626C9.60189 16.3227 9.56336 16.3539 9.38423 16.3539C9.21151 16.3539 9.16543 16.3202 9.1456 16.1797C9.11342 15.9518 9.31325 15.7954 9.50537 15.8981C9.59932 15.9484 9.63549 16.0316 9.62037 16.1626ZM1.84354 16.1187C1.97587 16.2509 1.94498 16.4473 1.77776 16.5367C1.65334 16.6033 1.60126 16.5926 1.48526 16.4766C1.36919 16.3607 1.35849 16.3087 1.42512 16.1844C1.51459 16.0173 1.7112 15.9864 1.84354 16.1187ZM26.8127 16.1187C26.9463 16.2521 26.9137 16.4476 26.7426 16.5391C26.6101 16.6099 26.5677 16.5986 26.4583 16.4636C26.2339 16.1867 26.5616 15.8678 26.8127 16.1187ZM18.6942 17.062C18.6942 17.2359 18.6646 17.4559 18.6284 17.551C18.5718 17.6997 17.8003 18.3673 15.7903 20.0068L15.3316 20.381H13.304L13.1163 20.1672C12.7433 19.7425 12.1308 19.9625 12.1308 20.5211C12.1308 20.7357 12.1733 20.8317 12.3188 20.946C12.5783 21.1499 12.7968 21.1311 13.083 20.8799L13.3268 20.6661H15.4764L18.6585 18.0398L18.6796 18.5852C18.6997 19.1015 18.6909 19.1378 18.5157 19.2652C18.414 19.3393 17.7304 19.8881 16.9965 20.4847C16.2626 21.0814 15.59 21.608 15.5018 21.6549C15.3078 21.7581 12.7498 21.6872 12.5232 21.5724C12.4447 21.5327 12.1317 21.3229 11.8276 21.1063L11.2748 20.7124V18.6801L12.3092 17.951L12.3805 19.0624L14.0655 19.0603L15.7504 19.0582L16.0273 18.8699C16.1796 18.7664 16.8179 18.2486 17.4457 17.7193C18.0735 17.19 18.6113 16.7544 18.6407 16.7514C18.6701 16.7484 18.6942 16.8882 18.6942 17.062ZM5.31497 16.9922C5.20453 17.1024 5.13983 17.2485 5.13983 17.3874C5.13983 17.5262 5.20453 17.6724 5.31497 17.7826C5.42533 17.893 5.57158 17.9576 5.71055 17.9576C5.96531 17.9576 6.28127 17.685 6.28127 17.4653C6.28127 16.9185 5.68216 16.6252 5.31497 16.9922ZM5.88384 17.2143C6.01646 17.3468 6.0176 17.3563 5.92207 17.5346C5.88141 17.6105 5.79152 17.6725 5.72232 17.6725C5.44338 17.6725 5.31818 17.3142 5.55003 17.1793C5.71918 17.0808 5.75385 17.0845 5.88384 17.2143ZM7.87902 17.3272C8.07463 17.6062 7.74818 17.8979 7.50833 17.6582C7.38413 17.5341 7.40339 17.3344 7.54757 17.2505C7.72513 17.1472 7.75824 17.1549 7.87902 17.3272ZM19.9919 17.3189C19.757 17.5376 19.7805 17.9292 20.0451 18.2037L20.2545 18.4209L20.7991 22.4016C21.0985 24.591 21.3304 26.3955 21.3144 26.4115C21.2984 26.4275 21.0936 26.1576 20.8592 25.8117L20.4332 25.1828L20.2416 23.594L20.05 22.0051L20.2282 21.7934C20.4587 21.5198 20.4598 21.212 20.2313 20.9837C19.9165 20.669 19.3947 20.8086 19.3016 21.2323C19.2488 21.4722 19.3497 21.7065 19.5948 21.9135C19.7509 22.0453 19.7777 22.1771 19.9491 23.6597L20.1346 25.2635L20.7802 26.2203C21.5291 27.3301 21.6124 27.5609 21.3617 27.8312C21.1173 28.0946 21.1257 28.516 21.3792 28.7152C21.4826 28.7964 21.6387 28.8629 21.7263 28.8629C21.8138 28.8629 21.97 28.7964 22.0734 28.7152C22.3549 28.4939 22.3376 28.086 22.0346 27.8031L21.8078 27.5914L21.3183 24.0468L20.8287 20.5022L21.2435 19.7849C21.6076 19.1552 21.6867 19.0618 21.8914 19.0199C22.4061 18.9148 22.5823 18.4143 22.2289 18.0613C21.9933 17.8259 21.7284 17.8376 21.4711 18.0947C21.2449 18.3206 21.2238 18.4167 21.3357 18.7108C21.3995 18.8782 21.3683 18.9718 21.0937 19.4373C20.7327 20.0493 20.7615 20.0795 20.6152 18.9356L20.5352 18.3099L20.7205 18.1642C20.8613 18.0536 20.9059 17.9542 20.9059 17.751C20.9059 17.2511 20.3481 16.9874 19.9919 17.3189ZM20.5349 17.5442C20.654 17.6632 20.6417 17.8513 20.5075 17.9626C20.2851 18.147 20.0064 17.7895 20.1953 17.5622C20.2998 17.4363 20.4205 17.4299 20.5349 17.5442ZM29.5381 17.8151C29.5381 17.9024 29.5864 17.9585 29.6629 17.96C29.7315 17.9614 30.1569 18.0061 30.6082 18.0595C31.0594 18.1128 31.4526 18.1419 31.4821 18.1241C31.5116 18.1063 31.5356 18.047 31.5356 17.9922C31.5356 17.884 31.4142 17.8569 30.4298 17.7456C29.5595 17.6471 29.5381 17.6488 29.5381 17.8151ZM21.981 18.2452C22.1365 18.3284 22.1619 18.5277 22.0333 18.6561C21.9017 18.7876 21.7046 18.7578 21.6163 18.5932C21.5529 18.4747 21.5618 18.4171 21.6606 18.3081C21.805 18.1486 21.8016 18.1493 21.981 18.2452ZM45.2109 18.356C45.5803 18.6297 45.6239 18.8106 45.6495 20.1743C45.6749 21.5348 45.6221 21.887 45.343 22.2184C45.1022 22.5043 44.74 22.5906 43.7807 22.5906H42.9507V18.1609L43.9802 18.184C44.8914 18.2044 45.0328 18.2242 45.2109 18.356ZM71.3408 18.4175C71.6696 18.7325 71.7136 19.0166 71.688 20.6569C71.6675 21.9748 71.6503 22.1523 71.5225 22.3687C71.2718 22.7929 71.0126 22.8757 69.9363 22.8757H68.9899V18.1612L71.1212 18.2071L71.3408 18.4175ZM3.94109 18.5306C3.70895 18.7466 3.72536 19.1834 3.97291 19.3779C4.07628 19.4592 4.23245 19.5257 4.31998 19.5257C4.40751 19.5257 4.56368 19.4592 4.66705 19.3779C5.06699 19.0637 4.82978 18.3853 4.31998 18.3853C4.19435 18.3853 4.02905 18.4486 3.94109 18.5306ZM4.48406 18.7559C4.6032 18.8749 4.59086 19.063 4.45667 19.1743C4.2343 19.3587 3.95557 19.0012 4.14448 18.7739C4.249 18.648 4.3697 18.6416 4.48406 18.7559ZM29.5389 18.8701C29.5389 18.9821 29.6504 19.0094 30.4128 19.0845C31.5357 19.195 31.5364 19.195 31.5364 19.0372C31.5364 18.9212 31.4382 18.8951 30.7296 18.8233C29.6258 18.7116 29.5389 18.715 29.5389 18.8701ZM7.48037 19.3261C7.5995 19.4451 7.58716 19.6332 7.45297 19.7445C7.2306 19.9289 6.95187 19.5715 7.14078 19.3441C7.2453 19.2182 7.36601 19.2119 7.48037 19.3261ZM29.4675 19.9534C29.4675 20.0318 29.4756 20.0962 29.4853 20.0965C29.4951 20.0968 29.9045 20.1447 30.3949 20.2028C30.8854 20.2609 31.3107 20.3088 31.3402 20.3091C31.3869 20.3097 31.4225 20.0256 31.3759 20.024C31.3661 20.0237 30.9567 19.9758 30.4663 19.9177C29.9758 19.8596 29.5505 19.8117 29.521 19.8114C29.4916 19.8111 29.4675 19.8749 29.4675 19.9534ZM12.8038 20.2817C12.9447 20.3358 12.9513 20.62 12.8142 20.7336C12.5809 20.9271 12.2866 20.54 12.5029 20.324C12.6 20.2269 12.6446 20.2206 12.8038 20.2817ZM54.9218 23.1786C55.1663 24.7565 55.3658 26.0876 55.3653 26.1366C55.3645 26.2036 55.1148 26.2257 54.3577 26.2257H53.3512L53.3882 26.0653C53.4085 25.9771 53.6442 24.646 53.9118 23.1073C54.1794 21.5687 54.4162 20.3097 54.4378 20.3097C54.4595 20.3097 54.6773 21.6008 54.9218 23.1786ZM6.78123 21.2363C6.58925 21.4281 6.59203 21.8314 6.78679 22.0259L6.93497 22.174L5.85159 25.0484L4.76828 27.9229L4.95477 29.5156C5.17849 31.4256 5.17849 31.4275 4.99465 31.7388C4.81886 32.0365 4.86224 32.2948 5.12235 32.4992C5.36405 32.6891 5.60946 32.6774 5.82134 32.4656C6.04321 32.244 6.05883 31.8476 5.8538 31.6427C5.77533 31.5643 5.66361 31.5002 5.60546 31.5002C5.46892 31.5002 5.46285 31.4672 5.25233 29.5829L5.07391 27.9864L6.14658 25.1281C6.73664 23.556 7.25129 22.2584 7.29046 22.2445C7.32955 22.2306 7.44605 22.1465 7.54935 22.0577C7.77914 21.8603 7.80618 21.4621 7.60485 21.2399C7.42679 21.0433 6.97634 21.0414 6.78123 21.2363ZM20.0363 21.1793C20.1649 21.3078 20.1395 21.507 19.9839 21.5902C19.908 21.6308 19.8301 21.664 19.8106 21.664C19.7514 21.664 19.5512 21.444 19.5512 21.3789C19.5512 21.2874 19.7629 21.0938 19.863 21.0938C19.9112 21.0938 19.9892 21.1323 20.0363 21.1793ZM29.8242 21.352C29.8242 21.5233 31.0507 23.8833 31.1619 23.9259C31.2143 23.946 31.2788 23.9408 31.3053 23.9143C31.3578 23.8619 31.5239 22.2567 31.5316 21.7275L31.5364 21.399L30.8204 21.3177C29.8862 21.2115 29.8242 21.2137 29.8242 21.352ZM7.4183 21.5116C7.5186 21.6988 7.35923 21.8986 7.13493 21.8668C6.95901 21.8418 6.87832 21.6724 6.95159 21.4817C7.00852 21.3333 7.33405 21.3542 7.4183 21.5116ZM5.7164 21.6343C5.84153 21.7849 5.71668 21.9847 5.49738 21.9847C5.27808 21.9847 5.15324 21.7849 5.27837 21.6343C5.32995 21.5723 5.42854 21.5214 5.49738 21.5214C5.56623 21.5214 5.66482 21.5723 5.7164 21.6343ZM8.49369 22.0204C8.33181 22.1821 8.30221 22.5857 8.43654 22.8006C8.50945 22.9173 8.3545 23.3554 7.38427 25.7754L6.24646 28.6135L6.25866 29.5898C6.26665 30.2359 6.3031 30.6335 6.36631 30.7654C6.44721 30.934 6.6755 31.0541 7.85162 31.5466C9.4448 32.2139 9.49245 32.2392 9.49245 32.4178C9.49245 32.669 9.76711 32.9257 10.0359 32.9257C10.5287 32.9257 10.8135 32.3611 10.4936 32.0181C10.2989 31.8092 10.102 31.7615 9.81962 31.8545C9.59547 31.9285 9.4759 31.8917 8.13185 31.3355C7.01465 30.8732 6.67215 30.7014 6.62749 30.5806C6.59567 30.4947 6.5498 30.0811 6.52547 29.6615L6.48138 28.8986L7.6386 25.9891C8.66804 23.4009 8.81657 23.0717 8.98351 23.0083C9.30176 22.8875 9.42111 22.7316 9.42111 22.437C9.42111 22.0835 9.22436 21.8778 8.88606 21.8778C8.73146 21.8778 8.58201 21.9321 8.49369 22.0204ZM9.12469 22.3728C9.15644 22.5976 8.9569 22.757 8.7692 22.6566C8.63858 22.5867 8.5875 22.3068 8.68723 22.2072C8.71513 22.1793 8.8195 22.1659 8.91909 22.1775C9.04914 22.1927 9.107 22.2475 9.12469 22.3728ZM5.03046 23.1932C4.92002 23.3035 4.85532 23.4496 4.85532 23.5885C4.85532 23.843 5.12813 24.1587 5.34807 24.1587C5.70641 24.1587 5.99677 23.8686 5.99677 23.5106C5.99677 23.2908 5.6808 23.0183 5.42604 23.0183C5.28707 23.0183 5.14082 23.0829 5.03046 23.1932ZM5.63728 23.4408C5.77996 23.7071 5.54475 23.9421 5.27823 23.7995C5.12306 23.7166 5.09788 23.5172 5.22629 23.3889C5.3547 23.2606 5.55431 23.2858 5.63728 23.4408ZM11.5043 23.6617C11.4189 23.7412 11.33 23.8821 11.3067 23.9748C11.2474 24.2107 11.4529 24.5743 11.6773 24.6306C11.907 24.6882 11.8319 24.5025 13.0576 28.043C13.8468 30.3226 14.059 31.0123 14.0227 31.1792C13.9283 31.6137 13.9613 31.8063 14.1597 31.9767C14.5378 32.3017 15.057 32.0721 15.057 31.5799C15.057 31.2394 14.9327 31.0729 14.633 31.0116L14.3943 30.9628L13.2946 27.7924C12.2337 24.7339 12.1988 24.6153 12.3061 24.4328C12.4666 24.1599 12.4437 23.8933 12.2423 23.6922C12.0273 23.4773 11.7162 23.4645 11.5043 23.6617ZM12.0884 23.9627C12.18 24.108 12.078 24.3234 11.9012 24.3583C11.7903 24.3801 11.5613 24.1976 11.5613 24.0874C11.5613 23.9772 11.7903 23.7947 11.9012 23.8165C11.9609 23.8283 12.0452 23.8941 12.0884 23.9627ZM13.1761 24.449C12.8874 24.6759 12.9108 25.0812 13.2278 25.3474C13.4453 25.5299 13.5308 25.7385 14.1479 27.5924C14.7821 29.4978 14.8214 29.6492 14.7286 29.828C14.4891 30.289 14.6945 30.724 15.1577 30.7372C15.4892 30.7465 15.6991 30.5334 15.6991 30.1873C15.6991 29.9188 15.5978 29.7724 15.3121 29.6283C15.1183 29.5306 15.0564 29.3791 14.4439 27.5073L13.7844 25.4916L13.9333 25.2905C14.1458 25.0032 14.1276 24.6742 13.8878 24.4682C13.648 24.262 13.4217 24.256 13.1761 24.449ZM13.6873 24.6719C13.8252 24.8096 13.7901 25.0702 13.6268 25.122C13.4566 25.1759 13.2735 25.0489 13.2735 24.877C13.2735 24.741 13.4063 24.5863 13.5232 24.5863C13.5664 24.5863 13.6402 24.6248 13.6873 24.6719ZM4.24607 24.9752C3.89215 25.3287 4.14291 25.9406 4.64165 25.9406C4.93494 25.9406 5.21238 25.6634 5.21238 25.3704C5.21238 25.0774 4.93494 24.8002 4.64165 24.8002C4.50268 24.8002 4.35643 24.8648 4.24607 24.9752ZM45.274 25.014C45.6286 25.3413 45.6627 25.5273 45.6625 27.1322C45.6622 28.4922 45.6504 28.6328 45.5182 28.8494C45.2949 29.2153 45.0219 29.2906 43.9172 29.2906H42.9518V24.7899L44.0163 24.8129C45.0374 24.8349 45.0889 24.8431 45.274 25.014ZM4.81537 25.1973C4.94799 25.3298 4.94913 25.3393 4.85361 25.5176C4.81294 25.5935 4.72305 25.6555 4.65385 25.6555C4.37491 25.6555 4.24971 25.2972 4.48157 25.1623C4.65071 25.0638 4.68539 25.0675 4.81537 25.1973ZM31.257 26.2673C31.3822 26.4179 31.2573 26.6177 31.038 26.6177C30.8187 26.6177 30.6939 26.4179 30.819 26.2673C30.8706 26.2052 30.9692 26.1544 31.038 26.1544C31.1068 26.1544 31.2054 26.2052 31.257 26.2673ZM15.6149 27.7807C15.5964 27.9408 15.5579 27.972 15.3788 27.972C15.206 27.972 15.16 27.9383 15.1401 27.7978C15.108 27.5699 15.3078 27.4135 15.4999 27.5162C15.5939 27.5665 15.63 27.6497 15.6149 27.7807ZM21.8921 28.0932C22.0113 28.2122 21.9989 28.4002 21.8648 28.5115C21.6424 28.6959 21.3637 28.3385 21.5526 28.1111C21.6571 27.9852 21.7778 27.9789 21.8921 28.0932ZM31.0237 28.7346C31.1531 28.8639 31.1265 29.0626 30.9683 29.1472C30.8561 29.2071 30.7974 29.1927 30.6813 29.0768C30.5652 28.9608 30.5508 28.9021 30.6108 28.79C30.6955 28.632 30.8943 28.6053 31.0237 28.7346ZM3.62898 29.3049C3.74811 29.4239 3.73577 29.6119 3.60158 29.7232C3.37921 29.9076 3.10048 29.5502 3.28939 29.3228C3.39391 29.1969 3.51462 29.1906 3.62898 29.3049ZM23.2918 29.7836C23.524 30.0399 23.1639 30.3762 22.9191 30.1317C22.7949 30.0076 22.8142 29.8079 22.9583 29.724C23.1298 29.6242 23.1508 29.6279 23.2918 29.7836ZM15.403 30.1419C15.4348 30.3667 15.2352 30.5261 15.0475 30.4258C14.9169 30.3559 14.8658 30.0759 14.9656 29.9764C14.9935 29.9484 15.0978 29.935 15.1974 29.9466C15.3275 29.9618 15.3853 30.0167 15.403 30.1419ZM31.6187 30.627C31.5823 30.6956 31.541 30.8961 31.527 31.0725L31.5017 31.3933L32.7502 31.3675C33.4368 31.3534 34.0294 31.3131 34.0669 31.2779C34.2051 31.1486 33.9107 31.0156 32.9232 30.7611C31.772 30.4644 31.7087 30.4579 31.6187 30.627ZM30.8097 30.8017C30.9409 30.9327 30.9117 31.13 30.7481 31.2175C30.5619 31.317 30.3959 31.197 30.3959 30.9628C30.3959 30.7362 30.6465 30.6386 30.8097 30.8017ZM36.1004 30.8536C36.1868 31.0147 36.1361 31.1872 35.9855 31.2449C35.8347 31.3027 35.6038 31.1625 35.6038 31.013C35.6038 30.7264 35.9694 30.609 36.1004 30.8536ZM15.6763 30.9121C15.6589 30.9416 15.6224 31.1305 15.5951 31.3321C15.5586 31.6029 15.5705 31.7141 15.6405 31.7576C15.6927 31.7901 16.2152 31.8064 16.8018 31.7938C18.5961 31.7554 18.6253 31.6032 16.9257 31.15C15.7504 30.8366 15.7241 30.8316 15.6763 30.9121ZM24.5818 31.322C24.5818 31.4945 24.5481 31.5406 24.4074 31.5604C24.1793 31.5926 24.0228 31.3929 24.1256 31.201C24.1759 31.1071 24.2592 31.071 24.3904 31.0861C24.5506 31.1045 24.5818 31.143 24.5818 31.322ZM14.6597 31.3296C14.8125 31.3881 14.803 31.6927 14.6459 31.7767C14.469 31.8713 14.2732 31.746 14.2732 31.5382C14.2732 31.328 14.4321 31.2423 14.6597 31.3296ZM19.5471 31.4191C19.6474 31.6063 19.488 31.806 19.2638 31.7742C19.0878 31.7493 19.0071 31.5799 19.0804 31.3891C19.1373 31.2408 19.4629 31.2617 19.5471 31.4191ZM25.1634 31.7675C25.1445 31.836 25.1078 32.0472 25.082 32.2368L25.0351 32.5812L26.2854 32.5575C27.5289 32.5338 27.8117 32.4778 27.595 32.2981C27.5038 32.2225 25.4617 31.6442 25.2822 31.6432C25.2359 31.6429 25.1824 31.6989 25.1634 31.7675ZM6.47289 31.7675C6.45484 31.7969 6.41718 32.0053 6.38914 32.2308L6.33813 32.6406L7.2916 32.6343C8.50032 32.6264 8.95847 32.5694 8.95847 32.4268C8.95847 32.3497 8.65991 32.237 7.88836 32.0229C6.79878 31.7206 6.53118 31.6723 6.47289 31.7675ZM5.62687 31.8708C5.83989 32.0836 5.60361 32.4167 5.33979 32.2757C5.21616 32.2095 5.16579 31.9276 5.26068 31.8328C5.33637 31.7571 5.53362 31.7777 5.62687 31.8708ZM3.77522 32.0664C3.80697 32.2912 3.60743 32.4506 3.41973 32.3502C3.26999 32.2702 3.23974 31.9594 3.37607 31.9025C3.57233 31.8204 3.75083 31.8938 3.77522 32.0664ZM10.2411 32.1859C10.3801 32.3249 10.3592 32.4899 10.1891 32.597C10.0436 32.6885 9.82804 32.5866 9.79315 32.41C9.77132 32.2992 9.95396 32.0704 10.0642 32.0704C10.0978 32.0704 10.1775 32.1224 10.2411 32.1859ZM29.1171 32.1442C29.2726 32.2273 29.298 32.4266 29.1695 32.5551C29.0409 32.6835 28.8414 32.6581 28.7582 32.5028C28.6627 32.3244 28.6638 32.3149 28.7964 32.1824C28.9291 32.0499 28.9386 32.0487 29.1171 32.1442ZM24.4039 32.7001C24.4039 32.9991 24.0369 33.1014 23.8975 32.8414C23.8266 32.709 23.8379 32.6666 23.973 32.5574C24.1578 32.4078 24.4039 32.4894 24.4039 32.7001ZM0.576172 38.4853V40L1.19355 39.9676C1.75778 39.938 1.82542 39.9185 1.9783 39.7408C2.20081 39.4825 2.21451 38.8771 2.00398 38.6097C1.87999 38.4522 1.87557 38.4188 1.96831 38.3419C2.04286 38.2801 2.07432 38.1117 2.07432 37.7749C2.07432 37.1232 1.98315 37.0444 1.18057 37.0023L0.576172 36.9706V38.4853ZM2.71639 38.4853V39.9821H4.07186V39.5544H3.14443V38.6278H3.50113C3.84992 38.6278 3.85784 38.6231 3.85784 38.414C3.85784 38.205 3.84992 38.2002 3.50113 38.2002H3.14443V37.4161H4.07186V36.9885H2.71639V38.4853ZM4.64258 38.4853V39.9821H5.07062V38.6991H5.38402C5.753 38.6991 5.78403 38.7489 5.78403 39.3413C5.78403 39.8047 5.89404 39.9821 6.18147 39.9821C6.31873 39.9821 6.35475 39.945 6.35475 39.8039C6.35475 39.7059 6.32265 39.6257 6.28341 39.6257C6.24375 39.6257 6.21207 39.4356 6.21207 39.1981C6.21207 38.8715 6.17976 38.7381 6.07517 38.6336C5.94027 38.4988 5.94027 38.4951 6.07517 38.3731C6.17733 38.2808 6.21207 38.1535 6.21207 37.8717C6.21207 37.1548 6.00854 36.9885 5.13134 36.9885H4.64258V38.4853ZM6.85414 38.4853V39.9821H7.28218L7.28468 39.501C7.28618 39.2264 7.32998 38.9434 7.38691 38.8417L7.4865 38.6635L7.66778 39.071C7.76744 39.2951 7.89642 39.5918 7.95435 39.7303C8.04224 39.9405 8.09561 39.9821 8.27731 39.9821C8.39702 39.9821 8.49497 39.9628 8.49497 39.9391C8.49497 39.9155 8.33267 39.53 8.13434 39.0824L7.77379 38.2685L8.13434 37.672C8.33267 37.344 8.49497 37.056 8.49497 37.032C8.49497 37.0081 8.40009 36.9885 8.28423 36.9885C8.09204 36.9885 8.0401 37.0482 7.69567 37.6658L7.31785 38.3432L7.27704 36.9885H6.85414V38.4853ZM8.99435 38.4853V39.9821H10.3498V39.5544H9.4224V38.6278H9.7791C10.1279 38.6278 10.1358 38.6231 10.1358 38.414C10.1358 38.205 10.1279 38.2002 9.7791 38.2002H9.4224V37.4161H10.3498V36.9885H8.99435V38.4853ZM10.9205 38.4853V39.9821H12.276V39.5544H11.3486V36.9885H10.9205V38.4853ZM12.7754 38.4853V39.9821H14.1309V39.5544H13.2034V38.6278H13.5245C13.8336 38.6278 13.8455 38.6199 13.8455 38.414C13.8455 38.2081 13.8336 38.2002 13.5245 38.2002H13.2034V37.4161H14.1309V36.9885H12.7754V38.4853ZM14.4876 37.0605C14.4876 37.1003 14.632 37.4918 14.8086 37.9306C15.1042 38.6653 15.1296 38.7782 15.1296 39.3554V39.9821H15.5577V39.413C15.5577 38.8969 15.5908 38.7611 15.9144 37.9507C16.1106 37.4594 16.2711 37.0419 16.2711 37.023C16.2711 37.004 16.1792 36.9885 16.0668 36.9885C15.8742 36.9885 15.8495 37.025 15.6329 37.63C15.5066 37.9828 15.3937 38.2715 15.3822 38.2715C15.3706 38.2715 15.257 37.9828 15.1296 37.63C14.9111 37.0244 14.8867 36.9885 14.6928 36.9885C14.58 36.9885 14.4876 37.0209 14.4876 37.0605ZM18.0546 37.0246C18.0546 37.0494 17.9101 37.6995 17.7336 38.4692C17.557 39.2388 17.4125 39.8941 17.4125 39.9253C17.4125 39.9565 17.5068 39.9821 17.6222 39.9821C17.8148 39.9821 17.8356 39.9569 17.8782 39.6731C17.9437 39.2366 17.9922 39.1848 18.3114 39.211C18.5827 39.2331 18.5912 39.2423 18.6643 39.5901C18.7339 39.9214 18.7554 39.948 18.9702 39.969C19.1799 39.9894 19.1974 39.9764 19.1603 39.8264C19.1378 39.7356 18.9841 39.068 18.8187 38.3427L18.5179 37.0241L18.2862 37.0018C18.1588 36.9895 18.0546 36.9997 18.0546 37.0246ZM19.6241 38.4853V39.9821H20.0521V38.6991H20.3655C20.7345 38.6991 20.7655 38.7489 20.7655 39.3413C20.7655 39.8047 20.8755 39.9821 21.163 39.9821C21.3002 39.9821 21.3363 39.945 21.3363 39.8039C21.3363 39.7059 21.3042 39.6257 21.2649 39.6257C21.2253 39.6257 21.1936 39.4356 21.1936 39.1981C21.1936 38.8745 21.1609 38.7378 21.0595 38.6364C20.9281 38.5052 20.9281 38.4999 21.0595 38.3876C21.1603 38.3013 21.1936 38.1764 21.1936 37.8835C21.1936 37.1539 20.9938 36.9885 20.1128 36.9885H19.6241V38.4853ZM21.6216 37.2023C21.6216 37.4082 21.6335 37.4161 21.9427 37.4161H22.2637V39.9821H22.6917V37.4161H22.9771C23.2466 37.4161 23.2625 37.4042 23.2625 37.2023V36.9885H21.6216V37.2023ZM23.7618 38.4853V39.9821H24.1899V36.9885H23.7618V38.4853ZM24.8319 38.4853V39.9821H25.2546L25.2751 39.3228L25.2957 38.6635L25.6345 38.6417C25.9405 38.6221 25.9734 38.6031 25.9734 38.4457C25.9734 38.2842 25.9475 38.2715 25.6167 38.2715H25.26V37.4161H26.1874V36.9885H24.8319V38.4853ZM26.6868 38.4853V39.9821H27.1148V36.9885H26.6868V38.4853ZM27.9654 37.1968L27.7569 37.4052V39.5654L27.9654 39.7738C28.144 39.9522 28.2289 39.9821 28.556 39.9821C29.0219 39.9821 29.2243 39.8547 29.3233 39.4989C29.453 39.0319 29.4256 38.913 29.1878 38.913C28.992 38.913 28.9764 38.9333 28.9559 39.2145C28.9375 39.4692 28.9039 39.5266 28.7407 39.5837C28.6099 39.6294 28.4888 39.6245 28.3662 39.5687L28.185 39.4862V38.501C28.185 37.4237 28.2117 37.3449 28.5773 37.3449C28.8691 37.3449 28.9697 37.4581 28.9697 37.7868C28.9697 38.0402 28.9835 38.0576 29.1837 38.0576C29.4259 38.0576 29.4537 37.941 29.3233 37.4717C29.2243 37.1159 29.0219 36.9885 28.556 36.9885C28.2289 36.9885 28.144 37.0184 27.9654 37.1968ZM29.9685 38.4853V39.9821H30.3252V36.9885H29.9685V38.4853ZM31.4666 37.0291C31.4666 37.0515 31.3222 37.6995 31.1456 38.4692C30.969 39.2388 30.8246 39.8941 30.8246 39.9253C30.8246 39.9565 30.9189 39.9821 31.0342 39.9821C31.2268 39.9821 31.2476 39.9569 31.2902 39.6731C31.3558 39.2366 31.4042 39.1848 31.7234 39.211C31.9948 39.2331 32.0032 39.2423 32.0763 39.5901C32.1462 39.9229 32.1668 39.948 32.3861 39.9693C32.5848 39.9886 32.6149 39.9722 32.582 39.8624C32.5607 39.791 32.4101 39.1393 32.2474 38.414C32.0847 37.6888 31.9369 37.0714 31.9189 37.0419C31.8811 36.9801 31.4666 36.9683 31.4666 37.0291ZM33.0361 38.4853V39.9821H34.3916V39.5544H33.4642V36.9885H33.0361V38.4853ZM35.8184 38.4853V39.9821H36.2464V36.9885H35.8184V38.4853ZM36.8885 38.4806V39.9821H37.3165L37.3207 39.0377L37.3247 38.0933L37.8009 39.0377C38.2014 39.8319 38.3029 39.9821 38.4389 39.9821H38.6007V36.9885H38.1726L38.1712 38.9486L37.7181 37.9864C37.319 37.1385 37.2427 37.0214 37.0768 37.0016L36.8885 36.979V38.4806ZM39.0287 37.2023C39.0287 37.4082 39.0406 37.4161 39.3497 37.4161H39.6708V39.9821H40.0988V37.4161H40.3842C40.6537 37.4161 40.6695 37.4042 40.6695 37.2023V36.9885H39.0287V37.2023ZM41.1689 38.4853V39.9821H42.5244V39.5544H41.597V38.6278H41.918C42.2271 38.6278 42.239 38.6199 42.239 38.414C42.239 38.2081 42.2271 38.2002 41.918 38.2002H41.597V37.4161H42.5244V36.9885H41.1689V38.4853ZM43.0951 38.4853V39.9821H44.4506V39.5544H43.5232V36.9885H43.0951V38.4853ZM44.95 38.4853V39.9821H46.3054V39.5544H45.378V36.9885H44.95V38.4853ZM46.8048 38.4853V39.9821H47.2329V36.9885H46.8048V38.4853ZM48.1104 37.1148C47.8635 37.3087 47.8036 37.5774 47.8036 38.4922C47.8036 39.4076 47.8916 39.7672 48.1496 39.9051C48.3386 40.0062 48.8429 40.0036 49.0355 39.9006C49.1499 39.8395 49.1947 39.8395 49.2151 39.9006C49.2301 39.9454 49.2878 39.9821 49.3433 39.9821C49.4245 39.9821 49.4444 39.827 49.4444 39.1981V38.414H49.0521C48.6839 38.414 48.6597 38.4247 48.6597 38.5875C48.6597 38.7237 48.7018 38.7658 48.8559 38.7835C49.0362 38.8042 49.0516 38.8301 49.0462 39.105C49.0391 39.4691 48.9214 39.6257 48.655 39.6257C48.3083 39.6257 48.2316 39.4193 48.2316 38.4853C48.2316 37.5558 48.309 37.3449 48.6495 37.3449C48.8991 37.3449 49.0164 37.4634 49.0164 37.7155C49.0164 37.8916 49.0426 37.9151 49.2398 37.9151C49.4615 37.9151 49.4629 37.9127 49.4226 37.6123C49.3647 37.1813 49.121 36.988 48.6379 36.9901C48.3969 36.9911 48.2125 37.0347 48.1104 37.1148ZM50.0865 38.4853V39.9821H51.442V39.5544H50.4432V38.6278H50.7999C51.1487 38.6278 51.1566 38.6231 51.1566 38.414C51.1566 38.205 51.1487 38.2002 50.7999 38.2002H50.4432V37.4161H51.442V36.9885H50.0865V38.4853ZM52.0127 38.4853V39.9821H52.3653L52.4051 38.0933L52.8871 39.0377C53.2621 39.7723 53.4008 39.9821 53.5113 39.9821C53.6488 39.9821 53.6535 39.9328 53.6535 38.4853V36.9885H53.2255V38.874L52.8355 38.0559C52.3356 37.0073 52.3236 36.9885 52.1548 36.9885C52.0174 36.9885 52.0127 37.0381 52.0127 38.4853ZM54.5041 37.1968L54.2956 37.4052V39.5654L54.5041 39.7738C54.6852 39.9546 54.7656 39.9821 55.1138 39.9821C55.6604 39.9821 55.8651 39.7888 55.8651 39.2725C55.8651 38.9365 55.8534 38.913 55.6867 38.913C55.5311 38.913 55.5084 38.9442 55.5084 39.1574C55.5084 39.5547 55.2087 39.7376 54.8616 39.552C54.7355 39.4845 54.7236 39.3941 54.7236 38.4971C54.7236 37.4182 54.7494 37.3449 55.1278 37.3449C55.3932 37.3449 55.5084 37.4945 55.5084 37.8391C55.5084 38.0247 55.5353 38.0576 55.6867 38.0576C55.8534 38.0576 55.8651 38.0341 55.8651 37.698C55.8651 37.1818 55.6604 36.9885 55.1138 36.9885C54.7656 36.9885 54.6852 37.016 54.5041 37.1968ZM56.5071 38.4853V39.9821H57.8626V39.5544H56.8638V38.6278H57.2205C57.5693 38.6278 57.5773 38.6231 57.5773 38.414C57.5773 38.205 57.5693 38.2002 57.2205 38.2002H56.8638V37.4161H57.8626V36.9885H56.5071V38.4853ZM59.3608 38.4853V39.9821H59.5391C59.7163 39.9821 59.7175 39.9776 59.7175 39.3367V38.6913L60.3952 38.7348L60.4347 39.2921C60.4762 39.8767 60.5365 39.979 60.8411 39.981C60.964 39.9818 61.0016 39.9413 61.0016 39.8081C61.0016 39.7124 60.9695 39.6143 60.9303 39.5901C60.891 39.5658 60.8589 39.3716 60.8589 39.1582C60.8589 38.8737 60.8232 38.7347 60.7248 38.6364C60.5935 38.5052 60.5935 38.4999 60.7248 38.3876C60.8287 38.2987 60.8589 38.1755 60.8589 37.8398C60.8589 37.6017 60.8275 37.3481 60.7891 37.2764C60.6902 37.0918 60.3402 36.9885 59.8138 36.9885H59.3608V38.4853ZM61.501 38.4853V39.9821H62.8564V39.5544H61.929V38.6278H62.2857C62.6345 38.6278 62.6424 38.6231 62.6424 38.414C62.6424 38.205 62.6345 38.2002 62.2857 38.2002H61.929V37.4161H62.8564V36.9885H61.501V38.4853ZM63.6051 37.149C63.3511 37.3672 63.2976 37.7988 63.4871 38.1003C63.5634 38.2217 63.8139 38.4636 64.0438 38.6378C64.3831 38.8949 64.4659 38.9983 64.4843 39.1878C64.5123 39.4759 64.3966 39.6257 64.1461 39.6257C63.901 39.6257 63.7839 39.5058 63.7839 39.2551C63.7839 39.0809 63.7567 39.0555 63.5699 39.0555C63.372 39.0555 63.3558 39.0747 63.3558 39.3105C63.3558 39.4972 63.4116 39.6212 63.5644 39.7738C63.7409 39.9501 63.8293 39.9821 64.1406 39.9821C64.4518 39.9821 64.5402 39.9501 64.7168 39.7738C64.887 39.6037 64.9253 39.505 64.9253 39.2367C64.9253 38.8165 64.7905 38.6156 64.2724 38.2641C63.6956 37.8727 63.608 37.4159 64.0986 37.3576C64.3519 37.3274 64.4973 37.4559 64.4973 37.7099C64.4973 37.8904 64.5231 37.9151 64.7113 37.9151C64.9092 37.9151 64.9253 37.8959 64.9253 37.6601C64.9253 37.2601 64.6117 36.9885 64.1501 36.9885C63.8813 36.9885 63.7451 37.0286 63.6051 37.149ZM65.496 38.4853V39.9821H66.9229V39.5544H65.9241V38.6278H66.2808C66.6296 38.6278 66.6375 38.6231 66.6375 38.414C66.6375 38.205 66.6296 38.2002 66.2808 38.2002H65.9241V37.4161H66.9229V36.9885H65.496V38.4853ZM67.8883 37.0776C67.8175 37.2961 67.2796 39.7667 67.2796 39.873C67.2796 39.9599 67.3311 39.9855 67.4723 39.969C67.6409 39.9493 67.6744 39.9018 67.74 39.5901C67.813 39.2423 67.8215 39.2331 68.0928 39.211C68.4121 39.1848 68.4605 39.2366 68.5261 39.6731C68.5687 39.9569 68.5895 39.9821 68.7821 39.9821C68.9118 39.9821 68.9917 39.945 68.9917 39.8846C68.9917 39.793 68.4573 37.3834 68.3771 37.1132C68.3335 36.9666 67.9337 36.9375 67.8883 37.0776ZM69.4911 38.4764V39.9821H69.9192V38.6991H70.202C70.5549 38.6991 70.6326 38.8241 70.6326 39.3929C70.6326 39.8438 70.711 39.9821 70.9669 39.9821C71.1265 39.9821 71.1292 39.9699 71.0882 39.4297C71.0606 39.0661 71.0018 38.8137 70.916 38.6913C70.7942 38.5173 70.7935 38.4976 70.9054 38.3857C70.9928 38.2981 71.0246 38.1427 71.0236 37.8061C71.0217 37.1476 70.9034 37.0447 70.1007 37.0026L69.4911 36.9706V38.4764ZM71.9702 37.0655C71.7004 37.2225 71.6313 37.5118 71.6313 38.4853C71.6313 39.7601 71.753 39.9821 72.4518 39.9821C72.6337 39.9821 72.8441 39.9491 72.919 39.9087C73.1109 39.8065 73.2722 39.4664 73.2722 39.166C73.2722 38.9323 73.2558 38.913 73.0581 38.913C72.8577 38.913 72.8441 38.9304 72.8441 39.1838C72.8441 39.5044 72.7435 39.6257 72.4781 39.6257C72.1079 39.6257 72.0594 39.493 72.0594 38.4853C72.0594 37.4776 72.1079 37.3449 72.4781 37.3449C72.7435 37.3449 72.8441 37.4662 72.8441 37.7868C72.8441 38.0402 72.8577 38.0576 73.0581 38.0576C73.2558 38.0576 73.2722 38.0382 73.2722 37.8046C73.2722 37.5042 73.1109 37.1641 72.919 37.0619C72.7442 36.9682 72.1336 36.9705 71.9702 37.0655ZM73.8429 38.4853V39.9821H74.2709V38.6991H75.0557V39.9821H75.4837V36.9885H75.0557V38.2715H74.2709V36.9885H73.8429V38.4853ZM1.65341 37.4998C1.73653 37.6309 1.73032 37.9682 1.64171 38.1336C1.58778 38.2343 1.49161 38.2715 1.28501 38.2715H1.00215V37.3261L1.29778 37.3658C1.46037 37.3875 1.62038 37.4479 1.65341 37.4998ZM5.59897 37.4144C5.76049 37.4757 5.78196 37.5242 5.78196 37.8278C5.78196 38.2425 5.69592 38.3427 5.33965 38.3427H5.06856V37.8913C5.06856 37.643 5.08996 37.4185 5.11614 37.3924C5.18406 37.3245 5.38659 37.3337 5.59897 37.4144ZM20.5805 37.4144C20.742 37.4757 20.7635 37.5242 20.7635 37.8278C20.7635 38.2425 20.6774 38.3427 20.3212 38.3427H20.0501V37.8913C20.0501 37.643 20.0715 37.4185 20.0977 37.3924C20.1656 37.3245 20.3681 37.3337 20.5805 37.4144ZM60.2908 37.4186C60.3976 37.4757 60.4287 37.5692 60.4287 37.832C60.4287 38.2425 60.3419 38.3427 59.9864 38.3427H59.7153V37.8913C59.7153 37.643 59.7367 37.4185 59.7629 37.3924C59.8348 37.3205 60.1352 37.3355 60.2908 37.4186ZM70.4875 37.4874C70.6426 37.6424 70.6752 37.9829 70.5563 38.2049C70.5024 38.3056 70.4062 38.3427 70.1996 38.3427H69.9167V37.3449H70.1308C70.2497 37.3449 70.4082 37.4082 70.4875 37.4874ZM18.4774 38.7526C18.4792 38.8048 18.3918 38.8417 18.2665 38.8417C18.0288 38.8417 18.0269 38.8373 18.1173 38.4853C18.1525 38.3481 18.2051 38.1396 18.2343 38.022C18.2837 37.8228 18.2937 37.8373 18.3808 38.2358C18.4322 38.471 18.4757 38.7036 18.4774 38.7526ZM31.8894 38.7169C31.8916 38.8093 31.8355 38.8417 31.6736 38.8417C31.4993 38.8417 31.4619 38.8162 31.4899 38.7169C31.5092 38.6484 31.5459 38.4799 31.5713 38.3427C31.6701 37.8109 31.6978 37.7932 31.7939 38.2002C31.8447 38.4158 31.8877 38.6484 31.8894 38.7169ZM68.196 38.1111C68.3817 38.8385 68.3814 38.8417 68.13 38.8417C67.9101 38.8417 67.9032 38.8328 67.948 38.61C67.9735 38.4826 68.0137 38.2581 68.0373 38.1111C68.0609 37.9641 68.0909 37.8438 68.104 37.8438C68.1171 37.8438 68.1585 37.9641 68.196 38.1111ZM1.60676 38.7434C1.68794 38.8245 1.71605 38.9574 1.70107 39.1889L1.67967 39.5188L1.00193 39.5623V38.6278H1.24656C1.38104 38.6278 1.54319 38.6799 1.60676 38.7434Z" fill="#202020"/>
</g>
<defs>
<clipPath id="clip0_6332_83527">
<rect width="74.9075" height="40" fill="white" transform="translate(0.576172)"/>
</clipPath>
</defs>
</svg>
