<?xml version="1.0" encoding="UTF-8"?>
<svg xmlns="http://www.w3.org/2000/svg" xmlns:xlink="http://www.w3.org/1999/xlink" width="250.8pt" height="248.87pt" viewBox="0 0 250.8 248.87" version="1.1">
<defs>
<clipPath id="clip1">
  <path d="M 123 246 L 126 246 L 126 248.871094 L 123 248.871094 Z M 123 246 "/>
</clipPath>
<clipPath id="clip2">
  <path d="M 245 123 L 250.800781 123 L 250.800781 129 L 245 129 Z M 245 123 "/>
</clipPath>
</defs>
<g id="surface1">
<path style=" stroke:none;fill-rule:nonzero;fill:rgb(7.054138%,40.380859%,67.381287%);fill-opacity:1;" d="M 248.613281 131.320313 C 248.613281 131.90625 248.136719 132.378906 247.554688 132.378906 C 246.96875 132.378906 246.492188 131.90625 246.492188 131.320313 C 246.492188 130.734375 246.96875 130.261719 247.554688 130.261719 C 248.136719 130.261719 248.613281 130.734375 248.613281 131.320313 "/>
<path style=" stroke:none;fill-rule:nonzero;fill:rgb(7.054138%,40.380859%,67.381287%);fill-opacity:1;" d="M 249 140.492188 C 249 141.921875 247.839844 143.078125 246.410156 143.078125 C 244.980469 143.078125 243.824219 141.921875 243.824219 140.492188 C 243.824219 139.0625 244.980469 137.902344 246.410156 137.902344 C 247.839844 137.902344 249 139.0625 249 140.492188 "/>
<path style=" stroke:none;fill-rule:nonzero;fill:rgb(7.054138%,40.380859%,67.381287%);fill-opacity:1;" d="M 247.929688 149.34375 C 247.929688 150.746094 246.792969 151.882813 245.390625 151.882813 C 243.988281 151.882813 242.851563 150.746094 242.851563 149.34375 C 242.851563 147.941406 243.988281 146.804688 245.390625 146.804688 C 246.792969 146.804688 247.929688 147.941406 247.929688 149.34375 "/>
<path style=" stroke:none;fill-rule:nonzero;fill:rgb(7.054138%,40.380859%,67.381287%);fill-opacity:1;" d="M 241.691406 168.058594 C 241.691406 169.21875 240.746094 170.160156 239.585938 170.160156 C 238.421875 170.160156 237.480469 169.21875 237.480469 168.058594 C 237.480469 166.894531 238.421875 165.953125 239.585938 165.953125 C 240.746094 165.953125 241.691406 166.894531 241.691406 168.058594 "/>
<path style=" stroke:none;fill-rule:nonzero;fill:rgb(7.054138%,40.380859%,67.381287%);fill-opacity:1;" d="M 244.609375 160.269531 C 244.609375 161.226563 243.832031 162.003906 242.875 162.003906 C 241.917969 162.003906 241.140625 161.226563 241.140625 160.269531 C 241.140625 159.3125 241.917969 158.535156 242.875 158.535156 C 243.832031 158.535156 244.609375 159.3125 244.609375 160.269531 "/>
<path style=" stroke:none;fill-rule:nonzero;fill:rgb(7.054138%,40.380859%,67.381287%);fill-opacity:1;" d="M 242.277344 164.144531 C 242.277344 164.816406 241.734375 165.359375 241.0625 165.359375 C 240.390625 165.359375 239.84375 164.816406 239.84375 164.144531 C 239.84375 163.472656 240.390625 162.925781 241.0625 162.925781 C 241.734375 162.925781 242.277344 163.472656 242.277344 164.144531 "/>
<path style=" stroke:none;fill-rule:nonzero;fill:rgb(7.054138%,40.380859%,67.381287%);fill-opacity:1;" d="M 238.511719 175.816406 C 238.511719 176.753906 237.75 177.511719 236.8125 177.511719 C 235.875 177.511719 235.113281 176.753906 235.113281 175.816406 C 235.113281 174.875 235.875 174.117188 236.8125 174.117188 C 237.75 174.117188 238.511719 174.875 238.511719 175.816406 "/>
<path style=" stroke:none;fill-rule:nonzero;fill:rgb(7.054138%,40.380859%,67.381287%);fill-opacity:1;" d="M 237.140625 179.828125 C 237.140625 180.957031 236.226563 181.871094 235.097656 181.871094 C 233.96875 181.871094 233.054688 180.957031 233.054688 179.828125 C 233.054688 178.703125 233.96875 177.789063 235.097656 177.789063 C 236.226563 177.789063 237.140625 178.703125 237.140625 179.828125 "/>
<path style=" stroke:none;fill-rule:nonzero;fill:rgb(7.054138%,40.380859%,67.381287%);fill-opacity:1;" d="M 225.3125 199.691406 C 225.3125 201.261719 224.039063 202.53125 222.46875 202.53125 C 220.902344 202.53125 219.628906 201.261719 219.628906 199.691406 C 219.628906 198.121094 220.902344 196.851563 222.46875 196.851563 C 224.039063 196.851563 225.3125 198.121094 225.3125 199.691406 "/>
<path style=" stroke:none;fill-rule:nonzero;fill:rgb(7.054138%,40.380859%,67.381287%);fill-opacity:1;" d="M 217.546875 207.195313 C 217.546875 208.234375 216.703125 209.078125 215.667969 209.078125 C 214.628906 209.078125 213.789063 208.234375 213.789063 207.195313 C 213.789063 206.160156 214.628906 205.316406 215.667969 205.316406 C 216.703125 205.316406 217.546875 206.160156 217.546875 207.195313 "/>
<path style=" stroke:none;fill-rule:nonzero;fill:rgb(7.054138%,40.380859%,67.381287%);fill-opacity:1;" d="M 212.867188 212.15625 C 212.867188 213.347656 211.898438 214.316406 210.707031 214.316406 C 209.515625 214.316406 208.546875 213.347656 208.546875 212.15625 C 208.546875 210.964844 209.515625 209.996094 210.707031 209.996094 C 211.898438 209.996094 212.867188 210.964844 212.867188 212.15625 "/>
<path style=" stroke:none;fill-rule:nonzero;fill:rgb(7.054138%,40.380859%,67.381287%);fill-opacity:1;" d="M 199.390625 223.316406 C 199.390625 224.082031 198.773438 224.703125 198.007813 224.703125 C 197.242188 224.703125 196.625 224.082031 196.625 223.316406 C 196.625 222.554688 197.242188 221.933594 198.007813 221.933594 C 198.773438 221.933594 199.390625 222.554688 199.390625 223.316406 "/>
<path style=" stroke:none;fill-rule:nonzero;fill:rgb(7.054138%,40.380859%,67.381287%);fill-opacity:1;" d="M 188.953125 230.851563 C 188.953125 232.394531 187.703125 233.644531 186.15625 233.644531 C 184.613281 233.644531 183.363281 232.394531 183.363281 230.851563 C 183.363281 229.308594 184.613281 228.054688 186.15625 228.054688 C 187.703125 228.054688 188.953125 229.308594 188.953125 230.851563 "/>
<path style=" stroke:none;fill-rule:nonzero;fill:rgb(7.054138%,40.380859%,67.381287%);fill-opacity:1;" d="M 176.804688 236.617188 C 176.804688 237.464844 176.117188 238.15625 175.265625 238.15625 C 174.414063 238.15625 173.726563 237.464844 173.726563 236.617188 C 173.726563 235.765625 174.414063 235.074219 175.265625 235.074219 C 176.117188 235.074219 176.804688 235.765625 176.804688 236.617188 "/>
<path style=" stroke:none;fill-rule:nonzero;fill:rgb(7.054138%,40.380859%,67.381287%);fill-opacity:1;" d="M 161.429688 242.152344 C 161.429688 243.0625 160.691406 243.804688 159.777344 243.804688 C 158.867188 243.804688 158.128906 243.0625 158.128906 242.152344 C 158.128906 241.238281 158.867188 240.5 159.777344 240.5 C 160.691406 240.5 161.429688 241.238281 161.429688 242.152344 "/>
<path style=" stroke:none;fill-rule:nonzero;fill:rgb(7.054138%,40.380859%,67.381287%);fill-opacity:1;" d="M 138.378906 246.300781 C 138.378906 247.191406 137.65625 247.914063 136.765625 247.914063 C 135.875 247.914063 135.152344 247.191406 135.152344 246.300781 C 135.152344 245.410156 135.875 244.6875 136.765625 244.6875 C 137.65625 244.6875 138.378906 245.410156 138.378906 246.300781 "/>
<g clip-path="url(#clip1)" clip-rule="nonzero">
<path style=" stroke:none;fill-rule:nonzero;fill:rgb(7.054138%,40.380859%,67.381287%);fill-opacity:1;" d="M 125.789063 247.484375 C 125.789063 248.25 125.171875 248.871094 124.402344 248.871094 C 123.636719 248.871094 123.015625 248.25 123.015625 247.484375 C 123.015625 246.71875 123.636719 246.097656 124.402344 246.097656 C 125.171875 246.097656 125.789063 246.71875 125.789063 247.484375 "/>
</g>
<path style=" stroke:none;fill-rule:nonzero;fill:rgb(7.054138%,40.380859%,67.381287%);fill-opacity:1;" d="M 105.589844 245.132813 C 105.589844 246.011719 104.875 246.726563 103.996094 246.726563 C 103.113281 246.726563 102.402344 246.011719 102.402344 245.132813 C 102.402344 244.25 103.113281 243.539063 103.996094 243.539063 C 104.875 243.539063 105.589844 244.25 105.589844 245.132813 "/>
<path style=" stroke:none;fill-rule:nonzero;fill:rgb(7.054138%,40.380859%,67.381287%);fill-opacity:1;" d="M 96.121094 243.050781 C 96.121094 244.425781 95.007813 245.542969 93.632813 245.542969 C 92.261719 245.542969 91.144531 244.425781 91.144531 243.050781 C 91.144531 241.679688 92.261719 240.5625 93.632813 240.5625 C 95.007813 240.5625 96.121094 241.679688 96.121094 243.050781 "/>
<path style=" stroke:none;fill-rule:nonzero;fill:rgb(7.054138%,40.380859%,67.381287%);fill-opacity:1;" d="M 86.9375 239.785156 C 86.9375 241.136719 85.84375 242.230469 84.492188 242.230469 C 83.140625 242.230469 82.042969 241.136719 82.042969 239.785156 C 82.042969 238.433594 83.140625 237.335938 84.492188 237.335938 C 85.84375 237.335938 86.9375 238.433594 86.9375 239.785156 "/>
<path style=" stroke:none;fill-rule:nonzero;fill:rgb(7.054138%,40.380859%,67.381287%);fill-opacity:1;" d="M 80 237.359375 C 80 238.625 78.972656 239.652344 77.703125 239.652344 C 76.4375 239.652344 75.410156 238.625 75.410156 237.359375 C 75.410156 236.089844 76.4375 235.0625 77.703125 235.0625 C 78.972656 235.0625 80 236.089844 80 237.359375 "/>
<path style=" stroke:none;fill-rule:nonzero;fill:rgb(7.054138%,40.380859%,67.381287%);fill-opacity:1;" d="M 59.855469 226.308594 C 59.855469 227.5625 58.839844 228.578125 57.589844 228.578125 C 56.335938 228.578125 55.320313 227.5625 55.320313 226.308594 C 55.320313 225.058594 56.335938 224.039063 57.589844 224.039063 C 58.839844 224.039063 59.855469 225.058594 59.855469 226.308594 "/>
<path style=" stroke:none;fill-rule:nonzero;fill:rgb(7.054138%,40.380859%,67.381287%);fill-opacity:1;" d="M 51.746094 221.5 C 51.746094 222.449219 50.976563 223.21875 50.027344 223.21875 C 49.074219 223.21875 48.304688 222.449219 48.304688 221.5 C 48.304688 220.550781 49.074219 219.78125 50.027344 219.78125 C 50.976563 219.78125 51.746094 220.550781 51.746094 221.5 "/>
<path style=" stroke:none;fill-rule:nonzero;fill:rgb(7.054138%,40.380859%,67.381287%);fill-opacity:1;" d="M 47.191406 216.636719 C 47.191406 218.03125 46.058594 219.160156 44.664063 219.160156 C 43.269531 219.160156 42.136719 218.03125 42.136719 216.636719 C 42.136719 215.242188 43.269531 214.109375 44.664063 214.109375 C 46.058594 214.109375 47.191406 215.242188 47.191406 216.636719 "/>
<path style=" stroke:none;fill-rule:nonzero;fill:rgb(7.054138%,40.380859%,67.381287%);fill-opacity:1;" d="M 35.652344 205.570313 C 35.652344 206.703125 34.734375 207.625 33.597656 207.625 C 32.464844 207.625 31.542969 206.703125 31.542969 205.570313 C 31.542969 204.433594 32.464844 203.515625 33.597656 203.515625 C 34.734375 203.515625 35.652344 204.433594 35.652344 205.570313 "/>
<path style=" stroke:none;fill-rule:nonzero;fill:rgb(7.054138%,40.380859%,67.381287%);fill-opacity:1;" d="M 26.015625 191.222656 C 26.015625 192.867188 24.683594 194.203125 23.039063 194.203125 C 21.390625 194.203125 20.058594 192.867188 20.058594 191.222656 C 20.058594 189.578125 21.390625 188.242188 23.039063 188.242188 C 24.683594 188.242188 26.015625 189.578125 26.015625 191.222656 "/>
<path style=" stroke:none;fill-rule:nonzero;fill:rgb(7.054138%,40.380859%,67.381287%);fill-opacity:1;" d="M 15.527344 172.152344 C 15.527344 173.675781 14.292969 174.910156 12.769531 174.910156 C 11.246094 174.910156 10.015625 173.675781 10.015625 172.152344 C 10.015625 170.628906 11.246094 169.398438 12.769531 169.398438 C 14.292969 169.398438 15.527344 170.628906 15.527344 172.152344 "/>
<path style=" stroke:none;fill-rule:nonzero;fill:rgb(7.054138%,40.380859%,67.381287%);fill-opacity:1;" d="M 8.382813 149.285156 C 8.382813 150.882813 7.089844 152.175781 5.492188 152.175781 C 3.898438 152.175781 2.601563 150.882813 2.601563 149.285156 C 2.601563 147.6875 3.898438 146.394531 5.492188 146.394531 C 7.089844 146.394531 8.382813 147.6875 8.382813 149.285156 "/>
<path style=" stroke:none;fill-rule:nonzero;fill:rgb(7.054138%,40.380859%,67.381287%);fill-opacity:1;" d="M 5.679688 126.25 C 5.679688 127.820313 4.40625 129.089844 2.839844 129.089844 C 1.269531 129.089844 0 127.820313 0 126.25 C 0 124.679688 1.269531 123.410156 2.839844 123.410156 C 4.40625 123.410156 5.679688 124.679688 5.679688 126.25 "/>
<path style=" stroke:none;fill-rule:nonzero;fill:rgb(7.054138%,40.380859%,67.381287%);fill-opacity:1;" d="M 7.253906 108.515625 C 7.253906 110.003906 6.046875 111.210938 4.554688 111.210938 C 3.070313 111.210938 1.863281 110.003906 1.863281 108.515625 C 1.863281 107.027344 3.070313 105.820313 4.554688 105.820313 C 6.046875 105.820313 7.253906 107.027344 7.253906 108.515625 "/>
<path style=" stroke:none;fill-rule:nonzero;fill:rgb(7.054138%,40.380859%,67.381287%);fill-opacity:1;" d="M 11.15625 85.414063 C 11.15625 86.085938 10.617188 86.628906 9.945313 86.628906 C 9.277344 86.628906 8.738281 86.085938 8.738281 85.414063 C 8.738281 84.746094 9.277344 84.203125 9.945313 84.203125 C 10.617188 84.203125 11.15625 84.746094 11.15625 85.414063 "/>
<path style=" stroke:none;fill-rule:nonzero;fill:rgb(7.054138%,40.380859%,67.381287%);fill-opacity:1;" d="M 20.5625 64.03125 C 20.5625 64.628906 20.082031 65.109375 19.484375 65.109375 C 18.890625 65.109375 18.410156 64.628906 18.410156 64.03125 C 18.410156 63.4375 18.890625 62.953125 19.484375 62.953125 C 20.082031 62.953125 20.5625 63.4375 20.5625 64.03125 "/>
<path style=" stroke:none;fill-rule:nonzero;fill:rgb(7.054138%,40.380859%,67.381287%);fill-opacity:1;" d="M 29.753906 49.757813 C 29.753906 50.417969 29.222656 50.953125 28.5625 50.953125 C 27.902344 50.953125 27.367188 50.417969 27.367188 49.757813 C 27.367188 49.097656 27.902344 48.5625 28.5625 48.5625 C 29.222656 48.5625 29.753906 49.097656 29.753906 49.757813 "/>
<path style=" stroke:none;fill-rule:nonzero;fill:rgb(7.054138%,40.380859%,67.381287%);fill-opacity:1;" d="M 37.011719 42 C 37.011719 42.722656 36.421875 43.3125 35.699219 43.3125 C 34.972656 43.3125 34.386719 42.722656 34.386719 42 C 34.386719 41.273438 34.972656 40.6875 35.699219 40.6875 C 36.421875 40.6875 37.011719 41.273438 37.011719 42 "/>
<path style=" stroke:none;fill-rule:nonzero;fill:rgb(7.054138%,40.380859%,67.381287%);fill-opacity:1;" d="M 50.886719 29.699219 C 50.886719 31.296875 49.59375 32.589844 47.996094 32.589844 C 46.402344 32.589844 45.105469 31.296875 45.105469 29.699219 C 45.105469 28.105469 46.402344 26.808594 47.996094 26.808594 C 49.59375 26.808594 50.886719 28.105469 50.886719 29.699219 "/>
<path style=" stroke:none;fill-rule:nonzero;fill:rgb(7.054138%,40.380859%,67.381287%);fill-opacity:1;" d="M 59.859375 22.925781 C 59.859375 23.800781 59.148438 24.511719 58.273438 24.511719 C 57.394531 24.511719 56.683594 23.800781 56.683594 22.925781 C 56.683594 22.046875 57.394531 21.339844 58.273438 21.339844 C 59.148438 21.339844 59.859375 22.046875 59.859375 22.925781 "/>
<path style=" stroke:none;fill-rule:nonzero;fill:rgb(7.054138%,40.380859%,67.381287%);fill-opacity:1;" d="M 82.519531 11.667969 C 82.519531 13.335938 81.167969 14.6875 79.503906 14.6875 C 77.835938 14.6875 76.484375 13.335938 76.484375 11.667969 C 76.484375 10 77.835938 8.648438 79.503906 8.648438 C 81.167969 8.648438 82.519531 10 82.519531 11.667969 "/>
<path style=" stroke:none;fill-rule:nonzero;fill:rgb(7.054138%,40.380859%,67.381287%);fill-opacity:1;" d="M 102.730469 4.9375 C 102.730469 6.167969 101.734375 7.164063 100.503906 7.164063 C 99.273438 7.164063 98.277344 6.167969 98.277344 4.9375 C 98.277344 3.707031 99.273438 2.710938 100.503906 2.710938 C 101.734375 2.710938 102.730469 3.707031 102.730469 4.9375 "/>
<path style=" stroke:none;fill-rule:nonzero;fill:rgb(7.054138%,40.380859%,67.381287%);fill-opacity:1;" d="M 124.972656 2.394531 C 124.972656 3.71875 123.902344 4.789063 122.578125 4.789063 C 121.257813 4.789063 120.183594 3.71875 120.183594 2.394531 C 120.183594 1.074219 121.257813 0 122.578125 0 C 123.902344 0 124.972656 1.074219 124.972656 2.394531 "/>
<path style=" stroke:none;fill-rule:nonzero;fill:rgb(7.054138%,40.380859%,67.381287%);fill-opacity:1;" d="M 139.871094 3.480469 C 139.871094 4.667969 138.90625 5.632813 137.714844 5.632813 C 136.523438 5.632813 135.558594 4.667969 135.558594 3.480469 C 135.558594 2.289063 136.523438 1.324219 137.714844 1.324219 C 138.90625 1.324219 139.871094 2.289063 139.871094 3.480469 "/>
<path style=" stroke:none;fill-rule:nonzero;fill:rgb(7.054138%,40.380859%,67.381287%);fill-opacity:1;" d="M 155.230469 5.289063 C 155.230469 6.285156 154.421875 7.09375 153.425781 7.09375 C 152.429688 7.09375 151.621094 6.285156 151.621094 5.289063 C 151.621094 4.289063 152.429688 3.484375 153.425781 3.484375 C 154.421875 3.484375 155.230469 4.289063 155.230469 5.289063 "/>
<path style=" stroke:none;fill-rule:nonzero;fill:rgb(7.054138%,40.380859%,67.381287%);fill-opacity:1;" d="M 162.074219 6.699219 C 162.074219 7.980469 161.035156 9.015625 159.753906 9.015625 C 158.472656 9.015625 157.433594 7.980469 157.433594 6.699219 C 157.433594 5.417969 158.472656 4.378906 159.753906 4.378906 C 161.035156 4.378906 162.074219 5.417969 162.074219 6.699219 "/>
<path style=" stroke:none;fill-rule:nonzero;fill:rgb(7.054138%,40.380859%,67.381287%);fill-opacity:1;" d="M 178.5 13.703125 C 178.5 14.484375 177.867188 15.117188 177.085938 15.117188 C 176.300781 15.117188 175.667969 14.484375 175.667969 13.703125 C 175.667969 12.921875 176.300781 12.285156 177.085938 12.285156 C 177.867188 12.285156 178.5 12.921875 178.5 13.703125 "/>
<path style=" stroke:none;fill-rule:nonzero;fill:rgb(7.054138%,40.380859%,67.381287%);fill-opacity:1;" d="M 193.421875 21.550781 C 193.421875 23.1875 192.09375 24.515625 190.453125 24.515625 C 188.816406 24.515625 187.484375 23.1875 187.484375 21.550781 C 187.484375 19.910156 188.816406 18.582031 190.453125 18.582031 C 192.09375 18.582031 193.421875 19.910156 193.421875 21.550781 "/>
<path style=" stroke:none;fill-rule:nonzero;fill:rgb(7.054138%,40.380859%,67.381287%);fill-opacity:1;" d="M 210.117188 34.160156 C 210.117188 35.6875 208.882813 36.925781 207.355469 36.925781 C 205.832031 36.925781 204.597656 35.6875 204.597656 34.160156 C 204.597656 32.636719 205.832031 31.398438 207.355469 31.398438 C 208.882813 31.398438 210.117188 32.636719 210.117188 34.160156 "/>
<path style=" stroke:none;fill-rule:nonzero;fill:rgb(7.054138%,40.380859%,67.381287%);fill-opacity:1;" d="M 215.28125 39.257813 C 215.28125 40.46875 214.296875 41.449219 213.085938 41.449219 C 211.875 41.449219 210.890625 40.46875 210.890625 39.257813 C 210.890625 38.046875 211.875 37.0625 213.085938 37.0625 C 214.296875 37.0625 215.28125 38.046875 215.28125 39.257813 "/>
<path style=" stroke:none;fill-rule:nonzero;fill:rgb(7.054138%,40.380859%,67.381287%);fill-opacity:1;" d="M 226.921875 52.136719 C 226.921875 53.835938 225.542969 55.214844 223.84375 55.214844 C 222.140625 55.214844 220.761719 53.835938 220.761719 52.136719 C 220.761719 50.4375 222.140625 49.058594 223.84375 49.058594 C 225.542969 49.058594 226.921875 50.4375 226.921875 52.136719 "/>
<path style=" stroke:none;fill-rule:nonzero;fill:rgb(7.054138%,40.380859%,67.381287%);fill-opacity:1;" d="M 229.84375 57.640625 C 229.84375 58.566406 229.09375 59.316406 228.164063 59.316406 C 227.238281 59.316406 226.484375 58.566406 226.484375 57.640625 C 226.484375 56.714844 227.238281 55.960938 228.164063 55.960938 C 229.09375 55.960938 229.84375 56.714844 229.84375 57.640625 "/>
<path style=" stroke:none;fill-rule:nonzero;fill:rgb(7.054138%,40.380859%,67.381287%);fill-opacity:1;" d="M 234.378906 65.539063 C 234.378906 66.652344 233.476563 67.554688 232.363281 67.554688 C 231.25 67.554688 230.347656 66.652344 230.347656 65.539063 C 230.347656 64.425781 231.25 63.523438 232.363281 63.523438 C 233.476563 63.523438 234.378906 64.425781 234.378906 65.539063 "/>
<path style=" stroke:none;fill-rule:nonzero;fill:rgb(7.054138%,40.380859%,67.381287%);fill-opacity:1;" d="M 238.480469 70.496094 C 238.480469 72.132813 237.152344 73.464844 235.515625 73.464844 C 233.875 73.464844 232.546875 72.132813 232.546875 70.496094 C 232.546875 68.855469 233.875 67.527344 235.515625 67.527344 C 237.152344 67.527344 238.480469 68.855469 238.480469 70.496094 "/>
<path style=" stroke:none;fill-rule:nonzero;fill:rgb(7.054138%,40.380859%,67.381287%);fill-opacity:1;" d="M 241.402344 80.914063 C 241.402344 82.054688 240.476563 82.980469 239.335938 82.980469 C 238.191406 82.980469 237.269531 82.054688 237.269531 80.914063 C 237.269531 79.769531 238.191406 78.84375 239.335938 78.84375 C 240.476563 78.84375 241.402344 79.769531 241.402344 80.914063 "/>
<path style=" stroke:none;fill-rule:nonzero;fill:rgb(7.054138%,40.380859%,67.381287%);fill-opacity:1;" d="M 248.234375 102.726563 C 248.234375 104.144531 247.085938 105.292969 245.667969 105.292969 C 244.25 105.292969 243.101563 104.144531 243.101563 102.726563 C 243.101563 101.308594 244.25 100.160156 245.667969 100.160156 C 247.085938 100.160156 248.234375 101.308594 248.234375 102.726563 "/>
<g clip-path="url(#clip2)" clip-rule="nonzero">
<path style=" stroke:none;fill-rule:nonzero;fill:rgb(7.054138%,40.380859%,67.381287%);fill-opacity:1;" d="M 250.796875 125.628906 C 250.796875 127.050781 249.640625 128.207031 248.214844 128.207031 C 246.789063 128.207031 245.632813 127.050781 245.632813 125.628906 C 245.632813 124.203125 246.789063 123.046875 248.214844 123.046875 C 249.640625 123.046875 250.796875 124.203125 250.796875 125.628906 "/>
</g>
<path style=" stroke:none;fill-rule:nonzero;fill:rgb(8.227539%,53.318787%,83.59375%);fill-opacity:1;" d="M 240.824219 125.972656 C 240.824219 127.027344 239.972656 127.878906 238.921875 127.878906 C 237.867188 127.878906 237.011719 127.027344 237.011719 125.972656 C 237.011719 124.921875 237.867188 124.070313 238.921875 124.070313 C 239.972656 124.070313 240.824219 124.921875 240.824219 125.972656 "/>
<path style=" stroke:none;fill-rule:nonzero;fill:rgb(8.227539%,53.318787%,83.59375%);fill-opacity:1;" d="M 238.609375 145.835938 C 238.609375 146.738281 237.875 147.472656 236.972656 147.472656 C 236.070313 147.472656 235.339844 146.738281 235.339844 145.835938 C 235.339844 144.933594 236.070313 144.199219 236.972656 144.199219 C 237.875 144.199219 238.609375 144.933594 238.609375 145.835938 "/>
<path style=" stroke:none;fill-rule:nonzero;fill:rgb(8.227539%,53.318787%,83.59375%);fill-opacity:1;" d="M 238.21875 151.363281 C 238.21875 152.796875 237.058594 153.957031 235.625 153.957031 C 234.191406 153.957031 233.03125 152.796875 233.03125 151.363281 C 233.03125 149.933594 234.191406 148.773438 235.625 148.773438 C 237.058594 148.773438 238.21875 149.933594 238.21875 151.363281 "/>
<path style=" stroke:none;fill-rule:nonzero;fill:rgb(8.227539%,53.318787%,83.59375%);fill-opacity:1;" d="M 235.953125 157.007813 C 235.953125 158.226563 234.964844 159.214844 233.742188 159.214844 C 232.523438 159.214844 231.53125 158.226563 231.53125 157.007813 C 231.53125 155.785156 232.523438 154.796875 233.742188 154.796875 C 234.964844 154.796875 235.953125 155.785156 235.953125 157.007813 "/>
<path style=" stroke:none;fill-rule:nonzero;fill:rgb(8.227539%,53.318787%,83.59375%);fill-opacity:1;" d="M 231.449219 169.523438 C 231.449219 170.800781 230.414063 171.835938 229.136719 171.835938 C 227.855469 171.835938 226.820313 170.800781 226.820313 169.523438 C 226.820313 168.242188 227.855469 167.207031 229.136719 167.207031 C 230.414063 167.207031 231.449219 168.242188 231.449219 169.523438 "/>
<path style=" stroke:none;fill-rule:nonzero;fill:rgb(8.227539%,53.318787%,83.59375%);fill-opacity:1;" d="M 226.21875 179.171875 C 226.21875 180.226563 225.363281 181.082031 224.308594 181.082031 C 223.253906 181.082031 222.394531 180.226563 222.394531 179.171875 C 222.394531 178.113281 223.253906 177.261719 224.308594 177.261719 C 225.363281 177.261719 226.21875 178.113281 226.21875 179.171875 "/>
<path style=" stroke:none;fill-rule:nonzero;fill:rgb(8.227539%,53.318787%,83.59375%);fill-opacity:1;" d="M 223.578125 184.640625 C 223.578125 186.230469 222.296875 187.515625 220.707031 187.515625 C 219.121094 187.515625 217.835938 186.230469 217.835938 184.640625 C 217.835938 183.054688 219.121094 181.769531 220.707031 181.769531 C 222.296875 181.769531 223.578125 183.054688 223.578125 184.640625 "/>
<path style=" stroke:none;fill-rule:nonzero;fill:rgb(8.227539%,53.318787%,83.59375%);fill-opacity:1;" d="M 207.152344 203.605469 C 207.152344 204.53125 206.40625 205.277344 205.480469 205.277344 C 204.554688 205.277344 203.804688 204.53125 203.804688 203.605469 C 203.804688 202.679688 204.554688 201.929688 205.480469 201.929688 C 206.40625 201.929688 207.152344 202.679688 207.152344 203.605469 "/>
<path style=" stroke:none;fill-rule:nonzero;fill:rgb(8.227539%,53.318787%,83.59375%);fill-opacity:1;" d="M 203.277344 207.703125 C 203.277344 208.75 202.425781 209.601563 201.378906 209.601563 C 200.335938 209.601563 199.484375 208.75 199.484375 207.703125 C 199.484375 206.65625 200.335938 205.808594 201.378906 205.808594 C 202.425781 205.808594 203.277344 206.65625 203.277344 207.703125 "/>
<path style=" stroke:none;fill-rule:nonzero;fill:rgb(8.227539%,53.318787%,83.59375%);fill-opacity:1;" d="M 199.8125 210.960938 C 199.8125 211.863281 199.082031 212.59375 198.179688 212.59375 C 197.28125 212.59375 196.550781 211.863281 196.550781 210.960938 C 196.550781 210.058594 197.28125 209.328125 198.179688 209.328125 C 199.082031 209.328125 199.8125 210.058594 199.8125 210.960938 "/>
<path style=" stroke:none;fill-rule:nonzero;fill:rgb(8.227539%,53.318787%,83.59375%);fill-opacity:1;" d="M 196.125 214.320313 C 196.125 215.644531 195.050781 216.71875 193.726563 216.71875 C 192.402344 216.71875 191.328125 215.644531 191.328125 214.320313 C 191.328125 212.996094 192.402344 211.921875 193.726563 211.921875 C 195.050781 211.921875 196.125 212.996094 196.125 214.320313 "/>
<path style=" stroke:none;fill-rule:nonzero;fill:rgb(8.227539%,53.318787%,83.59375%);fill-opacity:1;" d="M 178.003906 225.261719 C 178.003906 226.082031 177.339844 226.75 176.515625 226.75 C 175.695313 226.75 175.03125 226.082031 175.03125 225.261719 C 175.03125 224.441406 175.695313 223.773438 176.515625 223.773438 C 177.339844 223.773438 178.003906 224.441406 178.003906 225.261719 "/>
<path style=" stroke:none;fill-rule:nonzero;fill:rgb(8.227539%,53.318787%,83.59375%);fill-opacity:1;" d="M 162.753906 231.054688 C 162.753906 231.957031 162.027344 232.6875 161.125 232.6875 C 160.226563 232.6875 159.496094 231.957031 159.496094 231.054688 C 159.496094 230.15625 160.226563 229.425781 161.125 229.425781 C 162.027344 229.425781 162.753906 230.15625 162.753906 231.054688 "/>
<path style=" stroke:none;fill-rule:nonzero;fill:rgb(8.227539%,53.318787%,83.59375%);fill-opacity:1;" d="M 139.210938 236.035156 C 139.210938 236.640625 138.71875 237.132813 138.109375 237.132813 C 137.503906 237.132813 137.011719 236.640625 137.011719 236.035156 C 137.011719 235.425781 137.503906 234.933594 138.109375 234.933594 C 138.71875 234.933594 139.210938 235.425781 139.210938 236.035156 "/>
<path style=" stroke:none;fill-rule:nonzero;fill:rgb(8.227539%,53.318787%,83.59375%);fill-opacity:1;" d="M 123.558594 236.945313 C 123.558594 238.535156 122.269531 239.820313 120.679688 239.820313 C 119.089844 239.820313 117.800781 238.535156 117.800781 236.945313 C 117.800781 235.355469 119.089844 234.066406 120.679688 234.066406 C 122.269531 234.066406 123.558594 235.355469 123.558594 236.945313 "/>
<path style=" stroke:none;fill-rule:nonzero;fill:rgb(8.227539%,53.318787%,83.59375%);fill-opacity:1;" d="M 105.628906 235.023438 C 105.628906 235.914063 104.90625 236.632813 104.019531 236.632813 C 103.128906 236.632813 102.410156 235.914063 102.410156 235.023438 C 102.410156 234.136719 103.128906 233.414063 104.019531 233.414063 C 104.90625 233.414063 105.628906 234.136719 105.628906 235.023438 "/>
<path style=" stroke:none;fill-rule:nonzero;fill:rgb(8.227539%,53.318787%,83.59375%);fill-opacity:1;" d="M 85.78125 229.839844 C 85.78125 230.574219 85.183594 231.171875 84.453125 231.171875 C 83.714844 231.171875 83.121094 230.574219 83.121094 229.839844 C 83.121094 229.109375 83.714844 228.511719 84.453125 228.511719 C 85.183594 228.511719 85.78125 229.109375 85.78125 229.839844 "/>
<path style=" stroke:none;fill-rule:nonzero;fill:rgb(8.227539%,53.318787%,83.59375%);fill-opacity:1;" d="M 82.25 227.332031 C 82.25 228.933594 80.949219 230.234375 79.347656 230.234375 C 77.746094 230.234375 76.445313 228.933594 76.445313 227.332031 C 76.445313 225.730469 77.746094 224.429688 79.347656 224.429688 C 80.949219 224.429688 82.25 225.730469 82.25 227.332031 "/>
<path style=" stroke:none;fill-rule:nonzero;fill:rgb(8.227539%,53.318787%,83.59375%);fill-opacity:1;" d="M 69.238281 220.832031 C 69.238281 221.84375 68.417969 222.660156 67.410156 222.660156 C 66.398438 222.660156 65.582031 221.84375 65.582031 220.832031 C 65.582031 219.824219 66.398438 219.003906 67.410156 219.003906 C 68.417969 219.003906 69.238281 219.824219 69.238281 220.832031 "/>
<path style=" stroke:none;fill-rule:nonzero;fill:rgb(8.227539%,53.318787%,83.59375%);fill-opacity:1;" d="M 57.25 212.773438 C 57.25 214.164063 56.121094 215.289063 54.734375 215.289063 C 53.34375 215.289063 52.214844 214.164063 52.214844 212.773438 C 52.214844 211.382813 53.34375 210.257813 54.734375 210.257813 C 56.121094 210.257813 57.25 211.382813 57.25 212.773438 "/>
<path style=" stroke:none;fill-rule:nonzero;fill:rgb(8.227539%,53.318787%,83.59375%);fill-opacity:1;" d="M 49.882813 205.097656 C 49.882813 206.742188 48.550781 208.074219 46.90625 208.074219 C 45.261719 208.074219 43.925781 206.742188 43.925781 205.097656 C 43.925781 203.453125 45.261719 202.121094 46.90625 202.121094 C 48.550781 202.121094 49.882813 203.453125 49.882813 205.097656 "/>
<path style=" stroke:none;fill-rule:nonzero;fill:rgb(8.227539%,53.318787%,83.59375%);fill-opacity:1;" d="M 34.9375 187.613281 C 34.9375 189.195313 33.65625 190.476563 32.074219 190.476563 C 30.492188 190.476563 29.210938 189.195313 29.210938 187.613281 C 29.210938 186.03125 30.492188 184.75 32.074219 184.75 C 33.65625 184.75 34.9375 186.03125 34.9375 187.613281 "/>
<path style=" stroke:none;fill-rule:nonzero;fill:rgb(8.227539%,53.318787%,83.59375%);fill-opacity:1;" d="M 28.523438 177.894531 C 28.523438 179.347656 27.347656 180.523438 25.894531 180.523438 C 24.445313 180.523438 23.269531 179.347656 23.269531 177.894531 C 23.269531 176.445313 24.445313 175.269531 25.894531 175.269531 C 27.347656 175.269531 28.523438 176.445313 28.523438 177.894531 "/>
<path style=" stroke:none;fill-rule:nonzero;fill:rgb(8.227539%,53.318787%,83.59375%);fill-opacity:1;" d="M 23.699219 172.628906 C 23.699219 173.398438 23.078125 174.019531 22.308594 174.019531 C 21.542969 174.019531 20.921875 173.398438 20.921875 172.628906 C 20.921875 171.863281 21.542969 171.242188 22.308594 171.242188 C 23.078125 171.242188 23.699219 171.863281 23.699219 172.628906 "/>
<path style=" stroke:none;fill-rule:nonzero;fill:rgb(8.227539%,53.318787%,83.59375%);fill-opacity:1;" d="M 20.207031 157.3125 C 20.207031 158.867188 18.949219 160.128906 17.394531 160.128906 C 15.835938 160.128906 14.578125 158.867188 14.578125 157.3125 C 14.578125 155.757813 15.835938 154.5 17.394531 154.5 C 18.949219 154.5 20.207031 155.757813 20.207031 157.3125 "/>
<path style=" stroke:none;fill-rule:nonzero;fill:rgb(8.227539%,53.318787%,83.59375%);fill-opacity:1;" d="M 14.542969 136.023438 C 14.542969 136.800781 13.910156 137.433594 13.128906 137.433594 C 12.347656 137.433594 11.71875 136.800781 11.71875 136.023438 C 11.71875 135.242188 12.347656 134.609375 13.128906 134.609375 C 13.910156 134.609375 14.542969 135.242188 14.542969 136.023438 "/>
<path style=" stroke:none;fill-rule:nonzero;fill:rgb(8.227539%,53.318787%,83.59375%);fill-opacity:1;" d="M 14.609375 117.398438 C 14.609375 118.589844 13.644531 119.554688 12.453125 119.554688 C 11.261719 119.554688 10.292969 118.589844 10.292969 117.398438 C 10.292969 116.207031 11.261719 115.238281 12.453125 115.238281 C 13.644531 115.238281 14.609375 116.207031 14.609375 117.398438 "/>
<path style=" stroke:none;fill-rule:nonzero;fill:rgb(8.227539%,53.318787%,83.59375%);fill-opacity:1;" d="M 15.488281 102.082031 C 15.488281 102.785156 14.917969 103.355469 14.214844 103.355469 C 13.511719 103.355469 12.945313 102.785156 12.945313 102.082031 C 12.945313 101.378906 13.511719 100.808594 14.214844 100.808594 C 14.917969 100.808594 15.488281 101.378906 15.488281 102.082031 "/>
<path style=" stroke:none;fill-rule:nonzero;fill:rgb(8.227539%,53.318787%,83.59375%);fill-opacity:1;" d="M 21.429688 85.226563 C 21.429688 86.472656 20.421875 87.480469 19.175781 87.480469 C 17.929688 87.480469 16.921875 86.472656 16.921875 85.226563 C 16.921875 83.980469 17.929688 82.972656 19.175781 82.972656 C 20.421875 82.972656 21.429688 83.980469 21.429688 85.226563 "/>
<path style=" stroke:none;fill-rule:nonzero;fill:rgb(8.227539%,53.318787%,83.59375%);fill-opacity:1;" d="M 30.378906 65.476563 C 30.378906 66.492188 29.554688 67.316406 28.539063 67.316406 C 27.519531 67.316406 26.695313 66.492188 26.695313 65.476563 C 26.695313 64.460938 27.519531 63.636719 28.539063 63.636719 C 29.554688 63.636719 30.378906 64.460938 30.378906 65.476563 "/>
<path style=" stroke:none;fill-rule:nonzero;fill:rgb(8.227539%,53.318787%,83.59375%);fill-opacity:1;" d="M 43.167969 47.453125 C 43.167969 48.160156 42.59375 48.734375 41.886719 48.734375 C 41.175781 48.734375 40.601563 48.160156 40.601563 47.453125 C 40.601563 46.742188 41.175781 46.167969 41.886719 46.167969 C 42.59375 46.167969 43.167969 46.742188 43.167969 47.453125 "/>
<path style=" stroke:none;fill-rule:nonzero;fill:rgb(8.227539%,53.318787%,83.59375%);fill-opacity:1;" d="M 53.761719 37.261719 C 53.761719 38.191406 53.003906 38.945313 52.074219 38.945313 C 51.144531 38.945313 50.390625 38.191406 50.390625 37.261719 C 50.390625 36.332031 51.144531 35.578125 52.074219 35.578125 C 53.003906 35.578125 53.761719 36.332031 53.761719 37.261719 "/>
<path style=" stroke:none;fill-rule:nonzero;fill:rgb(8.227539%,53.318787%,83.59375%);fill-opacity:1;" d="M 63.058594 30.734375 C 63.058594 31.835938 62.164063 32.730469 61.0625 32.730469 C 59.957031 32.730469 59.066406 31.835938 59.066406 30.734375 C 59.066406 29.628906 59.957031 28.734375 61.0625 28.734375 C 62.164063 28.734375 63.058594 29.628906 63.058594 30.734375 "/>
<path style=" stroke:none;fill-rule:nonzero;fill:rgb(8.227539%,53.318787%,83.59375%);fill-opacity:1;" d="M 70.394531 25.671875 C 70.394531 26.433594 69.78125 27.050781 69.019531 27.050781 C 68.257813 27.050781 67.644531 26.433594 67.644531 25.671875 C 67.644531 24.914063 68.257813 24.296875 69.019531 24.296875 C 69.78125 24.296875 70.394531 24.914063 70.394531 25.671875 "/>
<path style=" stroke:none;fill-rule:nonzero;fill:rgb(8.227539%,53.318787%,83.59375%);fill-opacity:1;" d="M 79.285156 20.980469 C 79.285156 22.160156 78.328125 23.117188 77.152344 23.117188 C 75.96875 23.117188 75.011719 22.160156 75.011719 20.980469 C 75.011719 19.800781 75.96875 18.847656 77.152344 18.847656 C 78.328125 18.847656 79.285156 19.800781 79.285156 20.980469 "/>
<path style=" stroke:none;fill-rule:nonzero;fill:rgb(8.227539%,53.318787%,83.59375%);fill-opacity:1;" d="M 95.175781 15.015625 C 95.175781 15.75 94.582031 16.34375 93.847656 16.34375 C 93.113281 16.34375 92.519531 15.75 92.519531 15.015625 C 92.519531 14.28125 93.113281 13.6875 93.847656 13.6875 C 94.582031 13.6875 95.175781 14.28125 95.175781 15.015625 "/>
<path style=" stroke:none;fill-rule:nonzero;fill:rgb(8.227539%,53.318787%,83.59375%);fill-opacity:1;" d="M 103.671875 12.890625 C 103.671875 14.539063 102.335938 15.875 100.6875 15.875 C 99.035156 15.875 97.699219 14.539063 97.699219 12.890625 C 97.699219 11.238281 99.035156 9.902344 100.6875 9.902344 C 102.335938 9.902344 103.671875 11.238281 103.671875 12.890625 "/>
<path style=" stroke:none;fill-rule:nonzero;fill:rgb(8.227539%,53.318787%,83.59375%);fill-opacity:1;" d="M 109.957031 12.105469 C 109.957031 13.460938 108.855469 14.558594 107.5 14.558594 C 106.144531 14.558594 105.046875 13.460938 105.046875 12.105469 C 105.046875 10.746094 106.144531 9.648438 107.5 9.648438 C 108.855469 9.648438 109.957031 10.746094 109.957031 12.105469 "/>
<path style=" stroke:none;fill-rule:nonzero;fill:rgb(8.227539%,53.318787%,83.59375%);fill-opacity:1;" d="M 119.09375 10.992188 C 119.09375 12.066406 118.222656 12.9375 117.148438 12.9375 C 116.074219 12.9375 115.203125 12.066406 115.203125 10.992188 C 115.203125 9.917969 116.074219 9.050781 117.148438 9.050781 C 118.222656 9.050781 119.09375 9.917969 119.09375 10.992188 "/>
<path style=" stroke:none;fill-rule:nonzero;fill:rgb(8.227539%,53.318787%,83.59375%);fill-opacity:1;" d="M 135.003906 10.976563 C 135.003906 11.746094 134.378906 12.371094 133.609375 12.371094 C 132.839844 12.371094 132.21875 11.746094 132.21875 10.976563 C 132.21875 10.210938 132.839844 9.585938 133.609375 9.585938 C 134.378906 9.585938 135.003906 10.210938 135.003906 10.976563 "/>
<path style=" stroke:none;fill-rule:nonzero;fill:rgb(8.227539%,53.318787%,83.59375%);fill-opacity:1;" d="M 159.582031 14.851563 C 159.582031 16.503906 158.238281 17.84375 156.585938 17.84375 C 154.933594 17.84375 153.59375 16.503906 153.59375 14.851563 C 153.59375 13.195313 154.933594 11.855469 156.585938 11.855469 C 158.238281 11.855469 159.582031 13.195313 159.582031 14.851563 "/>
<path style=" stroke:none;fill-rule:nonzero;fill:rgb(8.227539%,53.318787%,83.59375%);fill-opacity:1;" d="M 159.003906 15.304688 C 159.003906 15.9375 158.492188 16.453125 157.859375 16.453125 C 157.226563 16.453125 156.710938 15.9375 156.710938 15.304688 C 156.710938 14.671875 157.226563 14.15625 157.859375 14.15625 C 158.492188 14.15625 159.003906 14.671875 159.003906 15.304688 "/>
<path style=" stroke:none;fill-rule:nonzero;fill:rgb(8.227539%,53.318787%,83.59375%);fill-opacity:1;" d="M 168.421875 18.277344 C 168.421875 19.519531 167.417969 20.523438 166.179688 20.523438 C 164.9375 20.523438 163.933594 19.519531 163.933594 18.277344 C 163.933594 17.039063 164.9375 16.035156 166.179688 16.035156 C 167.417969 16.035156 168.421875 17.039063 168.421875 18.277344 "/>
<path style=" stroke:none;fill-rule:nonzero;fill:rgb(8.227539%,53.318787%,83.59375%);fill-opacity:1;" d="M 189.167969 29.433594 C 189.167969 30.195313 188.550781 30.8125 187.789063 30.8125 C 187.027344 30.8125 186.410156 30.195313 186.410156 29.433594 C 186.410156 28.675781 187.027344 28.058594 187.789063 28.058594 C 188.550781 28.058594 189.167969 28.675781 189.167969 29.433594 "/>
<path style=" stroke:none;fill-rule:nonzero;fill:rgb(8.227539%,53.318787%,83.59375%);fill-opacity:1;" d="M 203.132813 38.894531 C 203.132813 40.375 201.929688 41.578125 200.449219 41.578125 C 198.964844 41.578125 197.765625 40.375 197.765625 38.894531 C 197.765625 37.410156 198.964844 36.210938 200.449219 36.210938 C 201.929688 36.210938 203.132813 37.410156 203.132813 38.894531 "/>
<path style=" stroke:none;fill-rule:nonzero;fill:rgb(8.227539%,53.318787%,83.59375%);fill-opacity:1;" d="M 208.320313 43.5625 C 208.320313 45.023438 207.136719 46.210938 205.671875 46.210938 C 204.210938 46.210938 203.023438 45.023438 203.023438 43.5625 C 203.023438 42.097656 204.210938 40.914063 205.671875 40.914063 C 207.136719 40.914063 208.320313 42.097656 208.320313 43.5625 "/>
<path style=" stroke:none;fill-rule:nonzero;fill:rgb(8.227539%,53.318787%,83.59375%);fill-opacity:1;" d="M 217.585938 56.316406 C 217.585938 56.898438 217.113281 57.371094 216.53125 57.371094 C 215.949219 57.371094 215.476563 56.898438 215.476563 56.316406 C 215.476563 55.734375 215.949219 55.265625 216.53125 55.265625 C 217.113281 55.265625 217.585938 55.734375 217.585938 56.316406 "/>
<path style=" stroke:none;fill-rule:nonzero;fill:rgb(8.227539%,53.318787%,83.59375%);fill-opacity:1;" d="M 230.203125 76.390625 C 230.203125 77.300781 229.46875 78.035156 228.558594 78.035156 C 227.648438 78.035156 226.910156 77.300781 226.910156 76.390625 C 226.910156 75.480469 227.648438 74.742188 228.558594 74.742188 C 229.46875 74.742188 230.203125 75.480469 230.203125 76.390625 "/>
<path style=" stroke:none;fill-rule:nonzero;fill:rgb(8.227539%,53.318787%,83.59375%);fill-opacity:1;" d="M 237.363281 94.054688 C 237.363281 95.429688 236.246094 96.546875 234.871094 96.546875 C 233.492188 96.546875 232.378906 95.429688 232.378906 94.054688 C 232.378906 92.675781 233.492188 91.558594 234.871094 91.558594 C 236.246094 91.558594 237.363281 92.675781 237.363281 94.054688 "/>
<path style=" stroke:none;fill-rule:nonzero;fill:rgb(8.227539%,53.318787%,83.59375%);fill-opacity:1;" d="M 239.992188 111.539063 C 239.992188 112.769531 238.996094 113.765625 237.765625 113.765625 C 236.535156 113.765625 235.535156 112.769531 235.535156 111.539063 C 235.535156 110.308594 236.535156 109.3125 237.765625 109.3125 C 238.996094 109.3125 239.992188 110.308594 239.992188 111.539063 "/>
<path style=" stroke:none;fill-rule:nonzero;fill:rgb(8.227539%,53.318787%,83.59375%);fill-opacity:1;" d="M 240.609375 120.949219 C 240.609375 121.785156 239.929688 122.464844 239.09375 122.464844 C 238.257813 122.464844 237.578125 121.785156 237.578125 120.949219 C 237.578125 120.113281 238.257813 119.433594 239.09375 119.433594 C 239.929688 119.433594 240.609375 120.113281 240.609375 120.949219 "/>
<path style=" stroke:none;fill-rule:nonzero;fill:rgb(7.054138%,40.380859%,67.381287%);fill-opacity:1;" d="M 231.933594 132.714844 C 231.933594 134.246094 230.691406 135.484375 229.164063 135.484375 C 227.632813 135.484375 226.394531 134.246094 226.394531 132.714844 C 226.394531 131.1875 227.632813 129.949219 229.164063 129.949219 C 230.691406 129.949219 231.933594 131.1875 231.933594 132.714844 "/>
<path style=" stroke:none;fill-rule:nonzero;fill:rgb(7.054138%,40.380859%,67.381287%);fill-opacity:1;" d="M 228.6875 146.175781 C 228.6875 146.773438 228.207031 147.253906 227.613281 147.253906 C 227.015625 147.253906 226.535156 146.773438 226.535156 146.175781 C 226.535156 145.582031 227.015625 145.101563 227.613281 145.101563 C 228.207031 145.101563 228.6875 145.582031 228.6875 146.175781 "/>
<path style=" stroke:none;fill-rule:nonzero;fill:rgb(7.054138%,40.380859%,67.381287%);fill-opacity:1;" d="M 226.351563 156.363281 C 226.351563 157.394531 225.515625 158.226563 224.484375 158.226563 C 223.453125 158.226563 222.621094 157.394531 222.621094 156.363281 C 222.621094 155.332031 223.453125 154.5 224.484375 154.5 C 225.515625 154.5 226.351563 155.332031 226.351563 156.363281 "/>
<path style=" stroke:none;fill-rule:nonzero;fill:rgb(7.054138%,40.380859%,67.381287%);fill-opacity:1;" d="M 216.492188 178.433594 C 216.492188 179.621094 215.53125 180.585938 214.34375 180.585938 C 213.15625 180.585938 212.191406 179.621094 212.191406 178.433594 C 212.191406 177.246094 213.15625 176.28125 214.34375 176.28125 C 215.53125 176.28125 216.492188 177.246094 216.492188 178.433594 "/>
<path style=" stroke:none;fill-rule:nonzero;fill:rgb(7.054138%,40.380859%,67.381287%);fill-opacity:1;" d="M 204.503906 193.496094 C 204.503906 194.097656 204.011719 194.585938 203.410156 194.585938 C 202.808594 194.585938 202.316406 194.097656 202.316406 193.496094 C 202.316406 192.890625 202.808594 192.402344 203.410156 192.402344 C 204.011719 192.402344 204.503906 192.890625 204.503906 193.496094 "/>
<path style=" stroke:none;fill-rule:nonzero;fill:rgb(7.054138%,40.380859%,67.381287%);fill-opacity:1;" d="M 196.429688 201.765625 C 196.429688 202.476563 195.851563 203.054688 195.140625 203.054688 C 194.425781 203.054688 193.851563 202.476563 193.851563 201.765625 C 193.851563 201.054688 194.425781 200.476563 195.140625 200.476563 C 195.851563 200.476563 196.429688 201.054688 196.429688 201.765625 "/>
<path style=" stroke:none;fill-rule:nonzero;fill:rgb(7.054138%,40.380859%,67.381287%);fill-opacity:1;" d="M 179.457031 214.207031 C 179.457031 215.019531 178.796875 215.679688 177.984375 215.679688 C 177.171875 215.679688 176.515625 215.019531 176.515625 214.207031 C 176.515625 213.394531 177.171875 212.738281 177.984375 212.738281 C 178.796875 212.738281 179.457031 213.394531 179.457031 214.207031 "/>
<path style=" stroke:none;fill-rule:nonzero;fill:rgb(7.054138%,40.380859%,67.381287%);fill-opacity:1;" d="M 169.925781 219.324219 C 169.925781 219.984375 169.394531 220.515625 168.734375 220.515625 C 168.074219 220.515625 167.539063 219.984375 167.539063 219.324219 C 167.539063 218.664063 168.074219 218.132813 168.734375 218.132813 C 169.394531 218.132813 169.925781 218.664063 169.925781 219.324219 "/>
<path style=" stroke:none;fill-rule:nonzero;fill:rgb(7.054138%,40.380859%,67.381287%);fill-opacity:1;" d="M 153.390625 225.894531 C 153.390625 227.566406 152.03125 228.925781 150.355469 228.925781 C 148.679688 228.925781 147.324219 227.566406 147.324219 225.894531 C 147.324219 224.21875 148.679688 222.859375 150.355469 222.859375 C 152.03125 222.859375 153.390625 224.21875 153.390625 225.894531 "/>
<path style=" stroke:none;fill-rule:nonzero;fill:rgb(7.054138%,40.380859%,67.381287%);fill-opacity:1;" d="M 135.46875 227.953125 C 135.46875 228.550781 134.984375 229.035156 134.386719 229.035156 C 133.785156 229.035156 133.300781 228.550781 133.300781 227.953125 C 133.300781 227.355469 133.785156 226.867188 134.386719 226.867188 C 134.984375 226.867188 135.46875 227.355469 135.46875 227.953125 "/>
<path style=" stroke:none;fill-rule:nonzero;fill:rgb(7.054138%,40.380859%,67.381287%);fill-opacity:1;" d="M 124.226563 228.535156 C 124.226563 230.003906 123.039063 231.191406 121.570313 231.191406 C 120.105469 231.191406 118.914063 230.003906 118.914063 228.535156 C 118.914063 227.066406 120.105469 225.878906 121.570313 225.878906 C 123.039063 225.878906 124.226563 227.066406 124.226563 228.535156 "/>
<path style=" stroke:none;fill-rule:nonzero;fill:rgb(7.054138%,40.380859%,67.381287%);fill-opacity:1;" d="M 109.328125 226.910156 C 109.328125 227.9375 108.492188 228.773438 107.464844 228.773438 C 106.4375 228.773438 105.605469 227.9375 105.605469 226.910156 C 105.605469 225.882813 106.4375 225.050781 107.464844 225.050781 C 108.492188 225.050781 109.328125 225.882813 109.328125 226.910156 "/>
<path style=" stroke:none;fill-rule:nonzero;fill:rgb(7.054138%,40.380859%,67.381287%);fill-opacity:1;" d="M 103.414063 225.882813 C 103.414063 227.488281 102.113281 228.789063 100.507813 228.789063 C 98.90625 228.789063 97.605469 227.488281 97.605469 225.882813 C 97.605469 224.28125 98.90625 222.980469 100.507813 222.980469 C 102.113281 222.980469 103.414063 224.28125 103.414063 225.882813 "/>
<path style=" stroke:none;fill-rule:nonzero;fill:rgb(7.054138%,40.380859%,67.381287%);fill-opacity:1;" d="M 86.097656 219.808594 C 86.097656 221.234375 84.941406 222.394531 83.511719 222.394531 C 82.082031 222.394531 80.925781 221.234375 80.925781 219.808594 C 80.925781 218.378906 82.082031 217.222656 83.511719 217.222656 C 84.941406 217.222656 86.097656 218.378906 86.097656 219.808594 "/>
<path style=" stroke:none;fill-rule:nonzero;fill:rgb(7.054138%,40.380859%,67.381287%);fill-opacity:1;" d="M 71.320313 211.332031 C 71.320313 212.953125 70.003906 214.269531 68.382813 214.269531 C 66.761719 214.269531 65.445313 212.953125 65.445313 211.332031 C 65.445313 209.710938 66.761719 208.394531 68.382813 208.394531 C 70.003906 208.394531 71.320313 209.710938 71.320313 211.332031 "/>
<path style=" stroke:none;fill-rule:nonzero;fill:rgb(7.054138%,40.380859%,67.381287%);fill-opacity:1;" d="M 53.914063 198.507813 C 53.914063 199.292969 53.277344 199.925781 52.496094 199.925781 C 51.710938 199.925781 51.074219 199.292969 51.074219 198.507813 C 51.074219 197.722656 51.710938 197.089844 52.496094 197.089844 C 53.277344 197.089844 53.914063 197.722656 53.914063 198.507813 "/>
<path style=" stroke:none;fill-rule:nonzero;fill:rgb(7.054138%,40.380859%,67.381287%);fill-opacity:1;" d="M 48.886719 192.582031 C 48.886719 193.863281 47.847656 194.898438 46.570313 194.898438 C 45.289063 194.898438 44.25 193.863281 44.25 192.582031 C 44.25 191.300781 45.289063 190.265625 46.570313 190.265625 C 47.847656 190.265625 48.886719 191.300781 48.886719 192.582031 "/>
<path style=" stroke:none;fill-rule:nonzero;fill:rgb(7.054138%,40.380859%,67.381287%);fill-opacity:1;" d="M 35.980469 175.117188 C 35.980469 175.96875 35.292969 176.660156 34.441406 176.660156 C 33.59375 176.660156 32.902344 175.96875 32.902344 175.117188 C 32.902344 174.269531 33.59375 173.578125 34.441406 173.578125 C 35.292969 173.578125 35.980469 174.269531 35.980469 175.117188 "/>
<path style=" stroke:none;fill-rule:nonzero;fill:rgb(7.054138%,40.380859%,67.381287%);fill-opacity:1;" d="M 28.414063 153.351563 C 28.414063 155.054688 27.035156 156.433594 25.332031 156.433594 C 23.625 156.433594 22.242188 155.054688 22.242188 153.351563 C 22.242188 151.644531 23.625 150.265625 25.332031 150.265625 C 27.035156 150.265625 28.414063 151.644531 28.414063 153.351563 "/>
<path style=" stroke:none;fill-rule:nonzero;fill:rgb(7.054138%,40.380859%,67.381287%);fill-opacity:1;" d="M 24.683594 147.4375 C 24.683594 148.132813 24.117188 148.695313 23.425781 148.695313 C 22.730469 148.695313 22.167969 148.132813 22.167969 147.4375 C 22.167969 146.742188 22.730469 146.179688 23.425781 146.179688 C 24.117188 146.179688 24.683594 146.742188 24.683594 147.4375 "/>
<path style=" stroke:none;fill-rule:nonzero;fill:rgb(7.054138%,40.380859%,67.381287%);fill-opacity:1;" d="M 24.363281 144.433594 C 24.363281 145.144531 23.789063 145.71875 23.078125 145.71875 C 22.367188 145.71875 21.792969 145.144531 21.792969 144.433594 C 21.792969 143.722656 22.367188 143.148438 23.078125 143.148438 C 23.789063 143.148438 24.363281 143.722656 24.363281 144.433594 "/>
<path style=" stroke:none;fill-rule:nonzero;fill:rgb(7.054138%,40.380859%,67.381287%);fill-opacity:1;" d="M 23.054688 121.773438 C 23.054688 122.878906 22.15625 123.773438 21.050781 123.773438 C 19.941406 123.773438 19.046875 122.878906 19.046875 121.773438 C 19.046875 120.664063 19.941406 119.769531 21.050781 119.769531 C 22.15625 119.769531 23.054688 120.664063 23.054688 121.773438 "/>
<path style=" stroke:none;fill-rule:nonzero;fill:rgb(7.054138%,40.380859%,67.381287%);fill-opacity:1;" d="M 23.761719 115.402344 C 23.761719 116.496094 22.878906 117.382813 21.78125 117.382813 C 20.691406 117.382813 19.804688 116.496094 19.804688 115.402344 C 19.804688 114.308594 20.691406 113.425781 21.78125 113.425781 C 22.878906 113.425781 23.761719 114.308594 23.761719 115.402344 "/>
<path style=" stroke:none;fill-rule:nonzero;fill:rgb(7.054138%,40.380859%,67.381287%);fill-opacity:1;" d="M 27.4375 96.851563 C 27.4375 98.335938 26.234375 99.535156 24.753906 99.535156 C 23.269531 99.535156 22.070313 98.335938 22.070313 96.851563 C 22.070313 95.367188 23.269531 94.164063 24.753906 94.164063 C 26.234375 94.164063 27.4375 95.367188 27.4375 96.851563 "/>
<path style=" stroke:none;fill-rule:nonzero;fill:rgb(7.054138%,40.380859%,67.381287%);fill-opacity:1;" d="M 31.507813 83.21875 C 31.507813 84.257813 30.664063 85.097656 29.628906 85.097656 C 28.589844 85.097656 27.746094 84.257813 27.746094 83.21875 C 27.746094 82.179688 28.589844 81.335938 29.628906 81.335938 C 30.664063 81.335938 31.507813 82.179688 31.507813 83.21875 "/>
<path style=" stroke:none;fill-rule:nonzero;fill:rgb(7.054138%,40.380859%,67.381287%);fill-opacity:1;" d="M 33.097656 77.894531 C 33.097656 78.703125 32.441406 79.359375 31.628906 79.359375 C 30.820313 79.359375 30.164063 78.703125 30.164063 77.894531 C 30.164063 77.085938 30.820313 76.425781 31.628906 76.425781 C 32.441406 76.425781 33.097656 77.085938 33.097656 77.894531 "/>
<path style=" stroke:none;fill-rule:nonzero;fill:rgb(7.054138%,40.380859%,67.381287%);fill-opacity:1;" d="M 43.433594 63.960938 C 43.433594 65.585938 42.117188 66.90625 40.488281 66.90625 C 38.863281 66.90625 37.542969 65.585938 37.542969 63.960938 C 37.542969 62.332031 38.863281 61.015625 40.488281 61.015625 C 42.117188 61.015625 43.433594 62.332031 43.433594 63.960938 "/>
<path style=" stroke:none;fill-rule:nonzero;fill:rgb(7.054138%,40.380859%,67.381287%);fill-opacity:1;" d="M 55.710938 49.914063 C 55.710938 51.359375 54.539063 52.527344 53.097656 52.527344 C 51.65625 52.527344 50.484375 51.359375 50.484375 49.914063 C 50.484375 48.472656 51.65625 47.304688 53.097656 47.304688 C 54.539063 47.304688 55.710938 48.472656 55.710938 49.914063 "/>
<path style=" stroke:none;fill-rule:nonzero;fill:rgb(7.054138%,40.380859%,67.381287%);fill-opacity:1;" d="M 60.453125 44.683594 C 60.453125 46.097656 59.304688 47.246094 57.890625 47.246094 C 56.476563 47.246094 55.332031 46.097656 55.332031 44.683594 C 55.332031 43.269531 56.476563 42.125 57.890625 42.125 C 59.304688 42.125 60.453125 43.269531 60.453125 44.683594 "/>
<path style=" stroke:none;fill-rule:nonzero;fill:rgb(7.054138%,40.380859%,67.381287%);fill-opacity:1;" d="M 69.941406 37.613281 C 69.941406 38.785156 68.992188 39.734375 67.820313 39.734375 C 66.648438 39.734375 65.699219 38.785156 65.699219 37.613281 C 65.699219 36.441406 66.648438 35.492188 67.820313 35.492188 C 68.992188 35.492188 69.941406 36.441406 69.941406 37.613281 "/>
<path style=" stroke:none;fill-rule:nonzero;fill:rgb(7.054138%,40.380859%,67.381287%);fill-opacity:1;" d="M 90.132813 27.234375 C 90.132813 28.496094 89.109375 29.519531 87.84375 29.519531 C 86.582031 29.519531 85.558594 28.496094 85.558594 27.234375 C 85.558594 25.96875 86.582031 24.945313 87.84375 24.945313 C 89.109375 24.945313 90.132813 25.96875 90.132813 27.234375 "/>
<path style=" stroke:none;fill-rule:nonzero;fill:rgb(7.054138%,40.380859%,67.381287%);fill-opacity:1;" d="M 96.984375 24.722656 C 96.984375 25.886719 96.039063 26.832031 94.871094 26.832031 C 93.703125 26.832031 92.761719 25.886719 92.761719 24.722656 C 92.761719 23.554688 93.703125 22.609375 94.871094 22.609375 C 96.039063 22.609375 96.984375 23.554688 96.984375 24.722656 "/>
<path style=" stroke:none;fill-rule:nonzero;fill:rgb(7.054138%,40.380859%,67.381287%);fill-opacity:1;" d="M 120.445313 20.398438 C 120.445313 21.433594 119.605469 22.273438 118.570313 22.273438 C 117.535156 22.273438 116.699219 21.433594 116.699219 20.398438 C 116.699219 19.367188 117.535156 18.527344 118.570313 18.527344 C 119.605469 18.527344 120.445313 19.367188 120.445313 20.398438 "/>
<path style=" stroke:none;fill-rule:nonzero;fill:rgb(7.054138%,40.380859%,67.381287%);fill-opacity:1;" d="M 133.21875 20.210938 C 133.21875 21.609375 132.082031 22.746094 130.683594 22.746094 C 129.285156 22.746094 128.152344 21.609375 128.152344 20.210938 C 128.152344 18.8125 129.285156 17.679688 130.683594 17.679688 C 132.082031 17.679688 133.21875 18.8125 133.21875 20.210938 "/>
<path style=" stroke:none;fill-rule:nonzero;fill:rgb(7.054138%,40.380859%,67.381287%);fill-opacity:1;" d="M 146.917969 21.746094 C 146.917969 23.347656 145.621094 24.644531 144.023438 24.644531 C 142.421875 24.644531 141.128906 23.347656 141.128906 21.746094 C 141.128906 20.148438 142.421875 18.851563 144.023438 18.851563 C 145.621094 18.851563 146.917969 20.148438 146.917969 21.746094 "/>
<path style=" stroke:none;fill-rule:nonzero;fill:rgb(7.054138%,40.380859%,67.381287%);fill-opacity:1;" d="M 155.261719 23.898438 C 155.261719 24.75 154.570313 25.4375 153.722656 25.4375 C 152.871094 25.4375 152.183594 24.75 152.183594 23.898438 C 152.183594 23.050781 152.871094 22.359375 153.722656 22.359375 C 154.570313 22.359375 155.261719 23.050781 155.261719 23.898438 "/>
<path style=" stroke:none;fill-rule:nonzero;fill:rgb(7.054138%,40.380859%,67.381287%);fill-opacity:1;" d="M 164.863281 27.347656 C 164.863281 28.175781 164.195313 28.84375 163.367188 28.84375 C 162.542969 28.84375 161.871094 28.175781 161.871094 27.347656 C 161.871094 26.519531 162.542969 25.851563 163.367188 25.851563 C 164.195313 25.851563 164.863281 26.519531 164.863281 27.347656 "/>
<path style=" stroke:none;fill-rule:nonzero;fill:rgb(7.054138%,40.380859%,67.381287%);fill-opacity:1;" d="M 179.8125 33.886719 C 179.8125 35.003906 178.90625 35.910156 177.789063 35.910156 C 176.671875 35.910156 175.765625 35.003906 175.765625 33.886719 C 175.765625 32.769531 176.671875 31.863281 177.789063 31.863281 C 178.90625 31.863281 179.8125 32.769531 179.8125 33.886719 "/>
<path style=" stroke:none;fill-rule:nonzero;fill:rgb(7.054138%,40.380859%,67.381287%);fill-opacity:1;" d="M 184.84375 37.484375 C 184.84375 38.574219 183.957031 39.460938 182.863281 39.460938 C 181.769531 39.460938 180.882813 38.574219 180.882813 37.484375 C 180.882813 36.390625 181.769531 35.503906 182.863281 35.503906 C 183.957031 35.503906 184.84375 36.390625 184.84375 37.484375 "/>
<path style=" stroke:none;fill-rule:nonzero;fill:rgb(7.054138%,40.380859%,67.381287%);fill-opacity:1;" d="M 197.535156 46.886719 C 197.535156 48.175781 196.492188 49.21875 195.203125 49.21875 C 193.914063 49.21875 192.871094 48.175781 192.871094 46.886719 C 192.871094 45.601563 193.914063 44.554688 195.203125 44.554688 C 196.492188 44.554688 197.535156 45.601563 197.535156 46.886719 "/>
<path style=" stroke:none;fill-rule:nonzero;fill:rgb(7.054138%,40.380859%,67.381287%);fill-opacity:1;" d="M 208.335938 58.046875 C 208.335938 59.136719 207.453125 60.019531 206.363281 60.019531 C 205.273438 60.019531 204.390625 59.136719 204.390625 58.046875 C 204.390625 56.957031 205.273438 56.074219 206.363281 56.074219 C 207.453125 56.074219 208.335938 56.957031 208.335938 58.046875 "/>
<path style=" stroke:none;fill-rule:nonzero;fill:rgb(7.054138%,40.380859%,67.381287%);fill-opacity:1;" d="M 215.6875 68.894531 C 215.6875 70.078125 214.726563 71.042969 213.539063 71.042969 C 212.351563 71.042969 211.390625 70.078125 211.390625 68.894531 C 211.390625 67.707031 212.351563 66.746094 213.539063 66.746094 C 214.726563 66.746094 215.6875 67.707031 215.6875 68.894531 "/>
<path style=" stroke:none;fill-rule:nonzero;fill:rgb(7.054138%,40.380859%,67.381287%);fill-opacity:1;" d="M 219.183594 73.417969 C 219.183594 74.949219 217.945313 76.1875 216.414063 76.1875 C 214.886719 76.1875 213.648438 74.949219 213.648438 73.417969 C 213.648438 71.890625 214.886719 70.652344 216.414063 70.652344 C 217.945313 70.652344 219.183594 71.890625 219.183594 73.417969 "/>
<path style=" stroke:none;fill-rule:nonzero;fill:rgb(7.054138%,40.380859%,67.381287%);fill-opacity:1;" d="M 224.191406 86.769531 C 224.191406 87.683594 223.449219 88.425781 222.535156 88.425781 C 221.621094 88.425781 220.878906 87.683594 220.878906 86.769531 C 220.878906 85.855469 221.621094 85.113281 222.535156 85.113281 C 223.449219 85.113281 224.191406 85.855469 224.191406 86.769531 "/>
<path style=" stroke:none;fill-rule:nonzero;fill:rgb(7.054138%,40.380859%,67.381287%);fill-opacity:1;" d="M 225.679688 92.238281 C 225.679688 92.898438 225.148438 93.429688 224.488281 93.429688 C 223.832031 93.429688 223.296875 92.898438 223.296875 92.238281 C 223.296875 91.582031 223.832031 91.046875 224.488281 91.046875 C 225.148438 91.046875 225.679688 91.582031 225.679688 92.238281 "/>
<path style=" stroke:none;fill-rule:nonzero;fill:rgb(7.054138%,40.380859%,67.381287%);fill-opacity:1;" d="M 229.191406 106.855469 C 229.191406 107.445313 228.714844 107.925781 228.121094 107.925781 C 227.53125 107.925781 227.054688 107.445313 227.054688 106.855469 C 227.054688 106.265625 227.53125 105.785156 228.121094 105.785156 C 228.714844 105.785156 229.191406 106.265625 229.191406 106.855469 "/>
<path style=" stroke:none;fill-rule:nonzero;fill:rgb(7.054138%,40.380859%,67.381287%);fill-opacity:1;" d="M 231.34375 124.296875 C 231.34375 124.964844 230.800781 125.503906 230.132813 125.503906 C 229.464844 125.503906 228.921875 124.964844 228.921875 124.296875 C 228.921875 123.628906 229.464844 123.085938 230.132813 123.085938 C 230.800781 123.085938 231.34375 123.628906 231.34375 124.296875 "/>
<path style=" stroke:none;fill-rule:nonzero;fill:rgb(8.227539%,53.318787%,83.59375%);fill-opacity:1;" d="M 221.898438 131.003906 C 221.898438 131.894531 221.179688 132.617188 220.289063 132.617188 C 219.398438 132.617188 218.675781 131.894531 218.675781 131.003906 C 218.675781 130.113281 219.398438 129.394531 220.289063 129.394531 C 221.179688 129.394531 221.898438 130.113281 221.898438 131.003906 "/>
<path style=" stroke:none;fill-rule:nonzero;fill:rgb(8.227539%,53.318787%,83.59375%);fill-opacity:1;" d="M 219.882813 144.941406 C 219.882813 145.605469 219.34375 146.140625 218.683594 146.140625 C 218.019531 146.140625 217.484375 145.605469 217.484375 144.941406 C 217.484375 144.28125 218.019531 143.746094 218.683594 143.746094 C 219.34375 143.746094 219.882813 144.28125 219.882813 144.941406 "/>
<path style=" stroke:none;fill-rule:nonzero;fill:rgb(8.227539%,53.318787%,83.59375%);fill-opacity:1;" d="M 217.789063 155.609375 C 217.789063 157.082031 216.59375 158.277344 215.117188 158.277344 C 213.640625 158.277344 212.445313 157.082031 212.445313 155.609375 C 212.445313 154.132813 213.640625 152.9375 215.117188 152.9375 C 216.59375 152.9375 217.789063 154.132813 217.789063 155.609375 "/>
<path style=" stroke:none;fill-rule:nonzero;fill:rgb(8.227539%,53.318787%,83.59375%);fill-opacity:1;" d="M 205.660156 177.410156 C 205.660156 178.234375 204.996094 178.898438 204.171875 178.898438 C 203.351563 178.898438 202.6875 178.234375 202.6875 177.410156 C 202.6875 176.589844 203.351563 175.925781 204.171875 175.925781 C 204.996094 175.925781 205.660156 176.589844 205.660156 177.410156 "/>
<path style=" stroke:none;fill-rule:nonzero;fill:rgb(8.227539%,53.318787%,83.59375%);fill-opacity:1;" d="M 202.253906 182.355469 C 202.253906 183.03125 201.703125 183.578125 201.03125 183.578125 C 200.355469 183.578125 199.808594 183.03125 199.808594 182.355469 C 199.808594 181.679688 200.355469 181.132813 201.03125 181.132813 C 201.703125 181.132813 202.253906 181.679688 202.253906 182.355469 "/>
<path style=" stroke:none;fill-rule:nonzero;fill:rgb(8.227539%,53.318787%,83.59375%);fill-opacity:1;" d="M 193.6875 192.664063 C 193.6875 194 192.601563 195.082031 191.265625 195.082031 C 189.929688 195.082031 188.847656 194 188.847656 192.664063 C 188.847656 191.328125 189.929688 190.246094 191.265625 190.246094 C 192.601563 190.246094 193.6875 191.328125 193.6875 192.664063 "/>
<path style=" stroke:none;fill-rule:nonzero;fill:rgb(8.227539%,53.318787%,83.59375%);fill-opacity:1;" d="M 183.796875 201.558594 C 183.796875 203.261719 182.414063 204.644531 180.710938 204.644531 C 179.007813 204.644531 177.628906 203.261719 177.628906 201.558594 C 177.628906 199.855469 179.007813 198.472656 180.710938 198.472656 C 182.414063 198.472656 183.796875 199.855469 183.796875 201.558594 "/>
<path style=" stroke:none;fill-rule:nonzero;fill:rgb(8.227539%,53.318787%,83.59375%);fill-opacity:1;" d="M 177.148438 205.53125 C 177.148438 207.015625 175.949219 208.21875 174.464844 208.21875 C 172.980469 208.21875 171.777344 207.015625 171.777344 205.53125 C 171.777344 204.046875 172.980469 202.84375 174.464844 202.84375 C 175.949219 202.84375 177.148438 204.046875 177.148438 205.53125 "/>
<path style=" stroke:none;fill-rule:nonzero;fill:rgb(8.227539%,53.318787%,83.59375%);fill-opacity:1;" d="M 156.675781 214.726563 C 156.675781 216.121094 155.546875 217.246094 154.152344 217.246094 C 152.761719 217.246094 151.632813 216.121094 151.632813 214.726563 C 151.632813 213.332031 152.761719 212.207031 154.152344 212.207031 C 155.546875 212.207031 156.675781 213.332031 156.675781 214.726563 "/>
<path style=" stroke:none;fill-rule:nonzero;fill:rgb(8.227539%,53.318787%,83.59375%);fill-opacity:1;" d="M 140.707031 218.222656 C 140.707031 219.691406 139.519531 220.882813 138.046875 220.882813 C 136.578125 220.882813 135.390625 219.691406 135.390625 218.222656 C 135.390625 216.753906 136.578125 215.5625 138.046875 215.5625 C 139.519531 215.5625 140.707031 216.753906 140.707031 218.222656 "/>
<path style=" stroke:none;fill-rule:nonzero;fill:rgb(8.227539%,53.318787%,83.59375%);fill-opacity:1;" d="M 130.695313 219.425781 C 130.695313 221.132813 129.3125 222.515625 127.605469 222.515625 C 125.898438 222.515625 124.515625 221.132813 124.515625 219.425781 C 124.515625 217.71875 125.898438 216.335938 127.605469 216.335938 C 129.3125 216.335938 130.695313 217.71875 130.695313 219.425781 "/>
<path style=" stroke:none;fill-rule:nonzero;fill:rgb(8.227539%,53.318787%,83.59375%);fill-opacity:1;" d="M 113.949219 218.109375 C 113.949219 219.261719 113.019531 220.191406 111.867188 220.191406 C 110.71875 220.191406 109.789063 219.261719 109.789063 218.109375 C 109.789063 216.960938 110.71875 216.03125 111.867188 216.03125 C 113.019531 216.03125 113.949219 216.960938 113.949219 218.109375 "/>
<path style=" stroke:none;fill-rule:nonzero;fill:rgb(8.227539%,53.318787%,83.59375%);fill-opacity:1;" d="M 104.695313 217.152344 C 104.695313 217.785156 104.1875 218.296875 103.554688 218.296875 C 102.925781 218.296875 102.414063 217.785156 102.414063 217.152344 C 102.414063 216.523438 102.925781 216.011719 103.554688 216.011719 C 104.1875 216.011719 104.695313 216.523438 104.695313 217.152344 "/>
<path style=" stroke:none;fill-rule:nonzero;fill:rgb(8.227539%,53.318787%,83.59375%);fill-opacity:1;" d="M 90.363281 211.988281 C 90.363281 212.695313 89.789063 213.273438 89.078125 213.273438 C 88.371094 213.273438 87.796875 212.695313 87.796875 211.988281 C 87.796875 211.28125 88.371094 210.707031 89.078125 210.707031 C 89.789063 210.707031 90.363281 211.28125 90.363281 211.988281 "/>
<path style=" stroke:none;fill-rule:nonzero;fill:rgb(8.227539%,53.318787%,83.59375%);fill-opacity:1;" d="M 81.492188 207.035156 C 81.492188 208.527344 80.285156 209.734375 78.792969 209.734375 C 77.304688 209.734375 76.097656 208.527344 76.097656 207.035156 C 76.097656 205.546875 77.304688 204.335938 78.792969 204.335938 C 80.285156 204.335938 81.492188 205.546875 81.492188 207.035156 "/>
<path style=" stroke:none;fill-rule:nonzero;fill:rgb(8.227539%,53.318787%,83.59375%);fill-opacity:1;" d="M 75.300781 203.71875 C 75.300781 204.671875 74.527344 205.441406 73.578125 205.441406 C 72.628906 205.441406 71.855469 204.671875 71.855469 203.71875 C 71.855469 202.769531 72.628906 202 73.578125 202 C 74.527344 202 75.300781 202.769531 75.300781 203.71875 "/>
<path style=" stroke:none;fill-rule:nonzero;fill:rgb(8.227539%,53.318787%,83.59375%);fill-opacity:1;" d="M 62.824219 193.496094 C 62.824219 194.804688 61.765625 195.863281 60.457031 195.863281 C 59.152344 195.863281 58.089844 194.804688 58.089844 193.496094 C 58.089844 192.1875 59.152344 191.128906 60.457031 191.128906 C 61.765625 191.128906 62.824219 192.1875 62.824219 193.496094 "/>
<path style=" stroke:none;fill-rule:nonzero;fill:rgb(8.227539%,53.318787%,83.59375%);fill-opacity:1;" d="M 57.253906 188.035156 C 57.253906 189.28125 56.246094 190.292969 54.996094 190.292969 C 53.75 190.292969 52.738281 189.28125 52.738281 188.035156 C 52.738281 186.789063 53.75 185.777344 54.996094 185.777344 C 56.246094 185.777344 57.253906 186.789063 57.253906 188.035156 "/>
<path style=" stroke:none;fill-rule:nonzero;fill:rgb(8.227539%,53.318787%,83.59375%);fill-opacity:1;" d="M 49.78125 180.015625 C 49.78125 180.792969 49.152344 181.421875 48.375 181.421875 C 47.597656 181.421875 46.96875 180.792969 46.96875 180.015625 C 46.96875 179.238281 47.597656 178.609375 48.375 178.609375 C 49.152344 178.609375 49.78125 179.238281 49.78125 180.015625 "/>
<path style=" stroke:none;fill-rule:nonzero;fill:rgb(8.227539%,53.318787%,83.59375%);fill-opacity:1;" d="M 39.582031 158.507813 C 39.582031 160.039063 38.339844 161.277344 36.8125 161.277344 C 35.28125 161.277344 34.042969 160.039063 34.042969 158.507813 C 34.042969 156.980469 35.28125 155.742188 36.8125 155.742188 C 38.339844 155.742188 39.582031 156.980469 39.582031 158.507813 "/>
<path style=" stroke:none;fill-rule:nonzero;fill:rgb(8.227539%,53.318787%,83.59375%);fill-opacity:1;" d="M 35.601563 143.175781 C 35.601563 144.730469 34.34375 145.992188 32.789063 145.992188 C 31.234375 145.992188 29.972656 144.730469 29.972656 143.175781 C 29.972656 141.621094 31.234375 140.359375 32.789063 140.359375 C 34.34375 140.359375 35.601563 141.621094 35.601563 143.175781 "/>
<path style=" stroke:none;fill-rule:nonzero;fill:rgb(8.227539%,53.318787%,83.59375%);fill-opacity:1;" d="M 33.980469 135.902344 C 33.980469 137.457031 32.722656 138.714844 31.167969 138.714844 C 29.613281 138.714844 28.355469 137.457031 28.355469 135.902344 C 28.355469 134.347656 29.613281 133.089844 31.167969 133.089844 C 32.722656 133.089844 33.980469 134.347656 33.980469 135.902344 "/>
<path style=" stroke:none;fill-rule:nonzero;fill:rgb(8.227539%,53.318787%,83.59375%);fill-opacity:1;" d="M 31.566406 116.71875 C 31.566406 117.359375 31.046875 117.878906 30.40625 117.878906 C 29.765625 117.878906 29.246094 117.359375 29.246094 116.71875 C 29.246094 116.074219 29.765625 115.554688 30.40625 115.554688 C 31.046875 115.554688 31.566406 116.074219 31.566406 116.71875 "/>
<path style=" stroke:none;fill-rule:nonzero;fill:rgb(8.227539%,53.318787%,83.59375%);fill-opacity:1;" d="M 33.355469 121.503906 C 33.355469 123.09375 32.066406 124.386719 30.472656 124.386719 C 28.882813 124.386719 27.589844 123.09375 27.589844 121.503906 C 27.589844 119.910156 28.882813 118.621094 30.472656 118.621094 C 32.066406 118.621094 33.355469 119.910156 33.355469 121.503906 "/>
<path style=" stroke:none;fill-rule:nonzero;fill:rgb(8.227539%,53.318787%,83.59375%);fill-opacity:1;" d="M 34.484375 105.148438 C 34.484375 106.511719 33.375 107.621094 32.011719 107.621094 C 30.644531 107.621094 29.539063 106.511719 29.539063 105.148438 C 29.539063 103.78125 30.644531 102.675781 32.011719 102.675781 C 33.375 102.675781 34.484375 103.78125 34.484375 105.148438 "/>
<path style=" stroke:none;fill-rule:nonzero;fill:rgb(8.227539%,53.318787%,83.59375%);fill-opacity:1;" d="M 35.484375 99.589844 C 35.484375 100.839844 34.472656 101.851563 33.222656 101.851563 C 31.972656 101.851563 30.960938 100.839844 30.960938 99.589844 C 30.960938 98.34375 31.972656 97.328125 33.222656 97.328125 C 34.472656 97.328125 35.484375 98.34375 35.484375 99.589844 "/>
<path style=" stroke:none;fill-rule:nonzero;fill:rgb(8.227539%,53.318787%,83.59375%);fill-opacity:1;" d="M 37.816406 89.808594 C 37.816406 90.589844 37.183594 91.222656 36.402344 91.222656 C 35.621094 91.222656 34.992188 90.589844 34.992188 89.808594 C 34.992188 89.027344 35.621094 88.398438 36.402344 88.398438 C 37.183594 88.398438 37.816406 89.027344 37.816406 89.808594 "/>
<path style=" stroke:none;fill-rule:nonzero;fill:rgb(8.227539%,53.318787%,83.59375%);fill-opacity:1;" d="M 37.152344 93.09375 C 37.152344 93.980469 36.429688 94.699219 35.542969 94.699219 C 34.65625 94.699219 33.9375 93.980469 33.9375 93.09375 C 33.9375 92.207031 34.65625 91.488281 35.542969 91.488281 C 36.429688 91.488281 37.152344 92.207031 37.152344 93.09375 "/>
<path style=" stroke:none;fill-rule:nonzero;fill:rgb(8.227539%,53.318787%,83.59375%);fill-opacity:1;" d="M 41.027344 84.683594 C 41.027344 86.050781 39.917969 87.15625 38.550781 87.15625 C 37.183594 87.15625 36.078125 86.050781 36.078125 84.683594 C 36.078125 83.316406 37.183594 82.207031 38.550781 82.207031 C 39.917969 82.207031 41.027344 83.316406 41.027344 84.683594 "/>
<path style=" stroke:none;fill-rule:nonzero;fill:rgb(8.227539%,53.318787%,83.59375%);fill-opacity:1;" d="M 49.824219 67.894531 C 49.824219 68.640625 49.21875 69.25 48.46875 69.25 C 47.722656 69.25 47.113281 68.640625 47.113281 67.894531 C 47.113281 67.144531 47.722656 66.539063 48.46875 66.539063 C 49.21875 66.539063 49.824219 67.144531 49.824219 67.894531 "/>
<path style=" stroke:none;fill-rule:nonzero;fill:rgb(8.227539%,53.318787%,83.59375%);fill-opacity:1;" d="M 55.425781 61.542969 C 55.425781 62.617188 54.550781 63.488281 53.476563 63.488281 C 52.402344 63.488281 51.53125 62.617188 51.53125 61.542969 C 51.53125 60.46875 52.402344 59.597656 53.476563 59.597656 C 54.550781 59.597656 55.425781 60.46875 55.425781 61.542969 "/>
<path style=" stroke:none;fill-rule:nonzero;fill:rgb(8.227539%,53.318787%,83.59375%);fill-opacity:1;" d="M 67.53125 49.386719 C 67.53125 50.433594 66.683594 51.285156 65.636719 51.285156 C 64.589844 51.285156 63.742188 50.433594 63.742188 49.386719 C 63.742188 48.34375 64.589844 47.492188 65.636719 47.492188 C 66.683594 47.492188 67.53125 48.34375 67.53125 49.386719 "/>
<path style=" stroke:none;fill-rule:nonzero;fill:rgb(8.227539%,53.318787%,83.59375%);fill-opacity:1;" d="M 73.9375 45.417969 C 73.9375 46.84375 72.78125 48 71.355469 48 C 69.925781 48 68.769531 46.84375 68.769531 45.417969 C 68.769531 43.988281 69.925781 42.832031 71.355469 42.832031 C 72.78125 42.832031 73.9375 43.988281 73.9375 45.417969 "/>
<path style=" stroke:none;fill-rule:nonzero;fill:rgb(8.227539%,53.318787%,83.59375%);fill-opacity:1;" d="M 80.917969 40.609375 C 80.917969 41.421875 80.257813 42.078125 79.449219 42.078125 C 78.636719 42.078125 77.976563 41.421875 77.976563 40.609375 C 77.976563 39.796875 78.636719 39.136719 79.449219 39.136719 C 80.257813 39.136719 80.917969 39.796875 80.917969 40.609375 "/>
<path style=" stroke:none;fill-rule:nonzero;fill:rgb(8.227539%,53.318787%,83.59375%);fill-opacity:1;" d="M 94.628906 34.523438 C 94.628906 35.195313 94.082031 35.742188 93.410156 35.742188 C 92.734375 35.742188 92.1875 35.195313 92.1875 34.523438 C 92.1875 33.847656 92.734375 33.300781 93.410156 33.300781 C 94.082031 33.300781 94.628906 33.847656 94.628906 34.523438 "/>
<path style=" stroke:none;fill-rule:nonzero;fill:rgb(8.227539%,53.318787%,83.59375%);fill-opacity:1;" d="M 100.886719 32.371094 C 100.886719 33.175781 100.234375 33.832031 99.425781 33.832031 C 98.621094 33.832031 97.96875 33.175781 97.96875 32.371094 C 97.96875 31.566406 98.621094 30.910156 99.425781 30.910156 C 100.234375 30.910156 100.886719 31.566406 100.886719 32.371094 "/>
<path style=" stroke:none;fill-rule:nonzero;fill:rgb(8.227539%,53.318787%,83.59375%);fill-opacity:1;" d="M 116.484375 29.339844 C 116.484375 30.851563 115.257813 32.078125 113.746094 32.078125 C 112.234375 32.078125 111.007813 30.851563 111.007813 29.339844 C 111.007813 27.828125 112.234375 26.601563 113.746094 26.601563 C 115.257813 26.601563 116.484375 27.828125 116.484375 29.339844 "/>
<path style=" stroke:none;fill-rule:nonzero;fill:rgb(8.227539%,53.318787%,83.59375%);fill-opacity:1;" d="M 124.148438 28.863281 C 124.148438 30.25 123.023438 31.375 121.636719 31.375 C 120.25 31.375 119.125 30.25 119.125 28.863281 C 119.125 27.480469 120.25 26.355469 121.636719 26.355469 C 123.023438 26.355469 124.148438 27.480469 124.148438 28.863281 "/>
<path style=" stroke:none;fill-rule:nonzero;fill:rgb(8.227539%,53.318787%,83.59375%);fill-opacity:1;" d="M 139.953125 29.773438 C 139.953125 31.128906 138.851563 32.230469 137.492188 32.230469 C 136.136719 32.230469 135.035156 31.128906 135.035156 29.773438 C 135.035156 28.414063 136.136719 27.3125 137.492188 27.3125 C 138.851563 27.3125 139.953125 28.414063 139.953125 29.773438 "/>
<path style=" stroke:none;fill-rule:nonzero;fill:rgb(8.227539%,53.318787%,83.59375%);fill-opacity:1;" d="M 157.070313 33.789063 C 157.070313 34.691406 156.339844 35.421875 155.4375 35.421875 C 154.539063 35.421875 153.808594 34.691406 153.808594 33.789063 C 153.808594 32.890625 154.539063 32.160156 155.4375 32.160156 C 156.339844 32.160156 157.070313 32.890625 157.070313 33.789063 "/>
<path style=" stroke:none;fill-rule:nonzero;fill:rgb(8.227539%,53.318787%,83.59375%);fill-opacity:1;" d="M 168.660156 37.777344 C 168.660156 38.917969 167.734375 39.84375 166.59375 39.84375 C 165.457031 39.84375 164.53125 38.917969 164.53125 37.777344 C 164.53125 36.640625 165.457031 35.714844 166.59375 35.714844 C 167.734375 35.714844 168.660156 36.640625 168.660156 37.777344 "/>
<path style=" stroke:none;fill-rule:nonzero;fill:rgb(8.227539%,53.318787%,83.59375%);fill-opacity:1;" d="M 181.953125 45.417969 C 181.953125 47.042969 180.636719 48.359375 179.011719 48.359375 C 177.386719 48.359375 176.070313 47.042969 176.070313 45.417969 C 176.070313 43.792969 177.386719 42.476563 179.011719 42.476563 C 180.636719 42.476563 181.953125 43.792969 181.953125 45.417969 "/>
<path style=" stroke:none;fill-rule:nonzero;fill:rgb(8.227539%,53.318787%,83.59375%);fill-opacity:1;" d="M 194.894531 55.933594 C 194.894531 57.640625 193.511719 59.023438 191.804688 59.023438 C 190.097656 59.023438 188.714844 57.640625 188.714844 55.933594 C 188.714844 54.226563 190.097656 52.84375 191.804688 52.84375 C 193.511719 52.84375 194.894531 54.226563 194.894531 55.933594 "/>
<path style=" stroke:none;fill-rule:nonzero;fill:rgb(8.227539%,53.318787%,83.59375%);fill-opacity:1;" d="M 197.683594 60.742188 C 197.683594 61.335938 197.203125 61.8125 196.613281 61.8125 C 196.023438 61.8125 195.542969 61.335938 195.542969 60.742188 C 195.542969 60.148438 196.023438 59.671875 196.613281 59.671875 C 197.203125 59.671875 197.683594 60.148438 197.683594 60.742188 "/>
<path style=" stroke:none;fill-rule:nonzero;fill:rgb(8.227539%,53.318787%,83.59375%);fill-opacity:1;" d="M 212.082031 78.90625 C 212.082031 80.375 210.894531 81.566406 209.425781 81.566406 C 207.953125 81.566406 206.765625 80.375 206.765625 78.90625 C 206.765625 77.4375 207.953125 76.246094 209.425781 76.246094 C 210.894531 76.246094 212.082031 77.4375 212.082031 78.90625 "/>
<path style=" stroke:none;fill-rule:nonzero;fill:rgb(8.227539%,53.318787%,83.59375%);fill-opacity:1;" d="M 220.175781 99.105469 C 220.175781 100.585938 218.976563 101.785156 217.496094 101.785156 C 216.015625 101.785156 214.816406 100.585938 214.816406 99.105469 C 214.816406 97.628906 216.015625 96.429688 217.496094 96.429688 C 218.976563 96.429688 220.175781 97.628906 220.175781 99.105469 "/>
<path style=" stroke:none;fill-rule:nonzero;fill:rgb(8.227539%,53.318787%,83.59375%);fill-opacity:1;" d="M 219.40625 100.445313 C 219.40625 101.238281 218.765625 101.878906 217.972656 101.878906 C 217.183594 101.878906 216.542969 101.238281 216.542969 100.445313 C 216.542969 99.65625 217.183594 99.015625 217.972656 99.015625 C 218.765625 99.015625 219.40625 99.65625 219.40625 100.445313 "/>
<path style=" stroke:none;fill-rule:nonzero;fill:rgb(8.227539%,53.318787%,83.59375%);fill-opacity:1;" d="M 221.132813 114.382813 C 221.132813 115.023438 220.617188 115.539063 219.980469 115.539063 C 219.34375 115.539063 218.824219 115.023438 218.824219 114.382813 C 218.824219 113.746094 219.34375 113.230469 219.980469 113.230469 C 220.617188 113.230469 221.132813 113.746094 221.132813 114.382813 "/>
<path style=" stroke:none;fill-rule:nonzero;fill:rgb(8.227539%,53.318787%,83.59375%);fill-opacity:1;" d="M 223.75 124.027344 C 223.75 125.5 222.558594 126.6875 221.089844 126.6875 C 219.621094 126.6875 218.433594 125.5 218.433594 124.027344 C 218.433594 122.558594 219.621094 121.367188 221.089844 121.367188 C 222.558594 121.367188 223.75 122.558594 223.75 124.027344 "/>
</g>
</svg>
