<svg xmlns="http://www.w3.org/2000/svg" width="770" height="180" fill="none"><path fill="url(#a)" d="M109.063 7.5c14.782 0 28.37 7.992 35.766 20.851l23.12 40.191.346.614c7.159 12.942 7.078 28.784-.258 41.663l-23.179 40.68c-7.374 12.944-21.01 21.001-35.855 21.001H64.215c-14.95 0-28.669-8.17-36.004-21.26l-22.79-40.68c-7.256-12.951-7.227-28.838.082-41.759l22.738-40.19C35.598 15.604 49.266 7.5 64.156 7.5h44.907ZM64.156 28.05c-7.392 0-14.312 4.021-18.088 10.696L23.33 78.936c-3.767 6.659-3.783 14.88-.044 21.556l22.797 40.687.178.314c3.803 6.531 10.647 10.457 17.953 10.457h44.788c7.37 0 14.274-3.997 18.057-10.639l23.173-40.681c3.842-6.743 3.825-15.098-.044-21.825l-23.113-40.197c-3.794-6.597-10.674-10.558-18.013-10.558H64.156Zm25.44 22.11c4.268-3.54 10.597-3.037 14.256 1.172l25.171 28.956.223.263a14.81 14.81 0 0 1-.223 19.16l-25.171 28.957c-3.659 4.209-9.988 4.712-14.255 1.172l-.202-.172c-4.268-3.728-4.71-10.222-.991-14.499L110.284 90l-21.88-25.169c-3.718-4.277-3.277-10.771.99-14.5l.203-.17Z"/><path fill="#fff" d="M264.101 131.241c10.322 0 19.215-4.031 26.838-12.171 7.623-8.141 11.434-18.135 11.434-29.903 0-11.768-3.811-21.682-11.434-29.822-7.623-8.141-16.516-12.252-26.838-12.252-2.938 0-5.717.484-8.417 1.29s-4.923 1.773-6.591 2.821a30.691 30.691 0 0 0-4.764 3.547c-1.429 1.29-2.382 2.176-2.858 2.66-.477.483-.794.886-.953 1.208v-9.914h-21.916v115.582h21.916v-44.572l2.461 2.982c1.588 1.934 4.367 3.788 8.338 5.723 3.97 1.934 8.178 2.821 12.784 2.821Zm-4.05-64.32c5.4 0 10.005 2.096 13.816 6.287 3.812 4.191 5.717 9.51 5.717 16.04 0 6.448-1.905 11.848-5.717 16.039-3.811 4.191-8.416 6.287-13.816 6.287-5.399 0-10.005-2.096-13.816-6.287-3.812-4.191-5.717-9.591-5.717-16.04 0-6.528 1.905-11.848 5.717-16.039 3.811-4.191 8.417-6.287 13.816-6.287Zm74.383 22.407c0-6.045 1.906-11.123 5.796-15.314 3.812-4.11 8.417-6.206 13.737-6.206 5.241 0 9.846 2.095 13.737 6.206 3.812 4.191 5.797 9.269 5.797 15.314s-1.985 11.123-5.797 15.234c-3.891 4.11-8.496 6.125-13.737 6.125-5.32 0-9.925-2.015-13.737-6.125-3.89-4.111-5.796-9.189-5.796-15.234Zm61.776-.08c0-11.204-4.208-21.037-12.625-29.42-8.417-8.382-18.263-12.574-29.618-12.574-11.434 0-21.28 4.192-29.697 12.574-8.417 8.383-12.625 18.216-12.625 29.42 0 11.284 4.208 21.117 12.625 29.499 8.417 8.383 18.263 12.574 29.697 12.574 11.355 0 21.201-4.191 29.618-12.574 8.417-8.382 12.625-18.215 12.625-29.5ZM454.615 48.5h-3.255c-4.367 0-8.496 1.048-12.467 2.982-3.97 2.015-6.511 3.627-7.702 4.836-1.111 1.21-2.064 2.176-2.699 2.902v-9.914h-21.916v80.923h21.916V91.46c0-6.932 1.746-12.251 5.081-15.959 3.335-3.708 7.941-5.561 13.658-5.561 3.255.08 5.717.403 7.305.967l.079-22.407Zm26.506-8.14c0 3.223-.874 5.803-2.621 7.737-1.747 2.015-3.891 2.982-6.352 2.982h-7.305v19.828h13.816v32.966c0 18.699 8.337 28.049 25.171 28.049 5.399.08 10.323-.726 14.69-2.418v-19.022l-.953.322c-.715.323-1.747.645-3.097.967-1.35.323-2.7.403-4.129.403-2.858 0-5.161-.886-6.987-2.659-1.827-1.774-2.7-3.869-2.7-6.448v-32.16h16.198V51.079h-16.198V25.53h-19.533v14.83Zm81.092 58.748 21.2 31.354h24.377l-31.682-46.184 30.015-34.74h-25.171l-28.427 33.047V14.88H530.53v115.582h21.995v-19.828l9.688-11.526Z"/><path fill="#fff" d="m685.2 97.415.794-9.027c0-11.526-3.811-21.117-11.354-28.855-7.623-7.738-15.83-11.606-27.185-11.606-11.434 0-21.201 4.19-29.3 12.412-8.178 8.221-12.228 18.135-12.228 29.661 0 11.607 4.129 21.521 12.387 29.742 8.258 8.221 18.184 12.332 29.935 12.332 4.129 0 8.1-.484 11.99-1.451 3.891-.967 7.067-2.015 9.529-3.305a62.127 62.127 0 0 0 6.908-4.352c2.144-1.612 3.573-2.741 4.208-3.385l1.509-1.532-11.355-14.83-2.302 2.498c-1.43 1.693-3.971 3.386-7.464 4.998-3.494 1.612-7.306 2.418-11.435 2.418-5.717 0-10.481-1.451-14.213-4.514-3.811-3.063-6.114-6.77-6.908-11.204H685.2Zm-37.745-30.467c8.711 0 15.01 6.939 16.624 14.83h-35.363c2.512-8.605 10.029-14.83 18.739-14.83Zm67.332 68.43c-2.62 6.126-7.226 9.108-13.816 9.108-3.256 0-5.955-.483-8.099-1.612v19.747l1.588.565c1.112.483 2.779.886 5.161 1.289 2.303.484 4.685.645 7.067.645 13.34 0 23.583-9.914 30.888-29.742l31.682-85.84h-22.709l-18.74 53.681-18.66-53.68H685.74l31.509 80.117-2.462 5.722Z"/><defs><linearGradient id="a" x1="-92.51" x2="194.256" y1="52.188" y2="216.739" gradientUnits="userSpaceOnUse"><stop offset=".173" stop-color="#00A3FF"/><stop offset=".899" stop-color="#FF0F00"/></linearGradient></defs></svg>