<svg xmlns="http://www.w3.org/2000/svg" width="59" height="59" fill="none"><g clip-path="url(#a)"><g fill="#DCDCDC" clip-path="url(#b)"><path d="M8.402 29.189v-32.51h-24.397v32.51H8.402ZM8.396 39.98V29.19H-16v10.79H8.396Zm48.801 5.46V29.19H32.8v16.25h24.397Z"/><path d="M8.396-3.317V29.19h48.8V-3.317h-48.8Zm0 59.596v10.836h24.398V56.28H8.396Zm.006-10.833v5.418H32.8v-5.418H8.402Zm0-16.254v5.418H32.8v-5.418H8.402ZM-16 39.983V45.4H8.397v-5.418H-16Zm0 10.878v5.418H8.397v-5.418H-16Z"/><path d="M-16 56.192v5.418H8.397v-5.418H-16Zm48.799-8.038v5.418h24.397v-5.418H32.8Zm40.117-18.965v-32.51h-16.54v32.51h16.54Zm-.002 10.791V29.192h-16.54V39.98h16.54Zm-16.541.003V45.4h16.54v-5.418h-16.54Z"/><path d="M56.373 50.861v5.418h16.54v-5.418h-16.54Z"/><path d="M56.375 56.192v5.418h16.54v-5.418h-16.54Z"/></g></g><defs><clipPath id="a"><path fill="#fff" d="M0 0h59v59H0z"/></clipPath><clipPath id="b"><path fill="#fff" d="M-16-44h122V78H-16z"/></clipPath></defs></svg>